<svg width="24" height="25" viewBox="0 0 24 25" fill="none" xmlns="http://www.w3.org/2000/svg">
<path d="M12 2.5C9.38 2.5 7.25 4.63 7.25 7.25C7.25 9.82 9.26 11.9 11.88 11.99C11.96 11.98 12.04 11.98 12.1 11.99C12.12 11.99 12.13 11.99 12.15 11.99C12.16 11.99 12.16 11.99 12.17 11.99C14.73 11.9 16.74 9.82 16.75 7.25C16.75 4.63 14.62 2.5 12 2.5Z" fill="#0F003A"/>
<path d="M17.0809 14.65C14.2909 12.79 9.74094 12.79 6.93094 14.65C5.66094 15.5 4.96094 16.65 4.96094 17.88C4.96094 19.11 5.66094 20.25 6.92094 21.09C8.32094 22.03 10.1609 22.5 12.0009 22.5C13.8409 22.5 15.6809 22.03 17.0809 21.09C18.3409 20.24 19.0409 19.1 19.0409 17.86C19.0309 16.63 18.3409 15.49 17.0809 14.65Z" fill="#0F003A"/>
</svg>
