<svg width="4146" height="1995" viewBox="0 0 4146 1995" fill="none" xmlns="http://www.w3.org/2000/svg">
<g clip-path="url(#clip0_689_1450)">
<g opacity="0.2">
<mask id="mask0_689_1450" style="mask-type:alpha" maskUnits="userSpaceOnUse" x="2913" y="438" width="1861" height="2692">
<path fill-rule="evenodd" clip-rule="evenodd" d="M4467.43 1556.44C4484.44 1518.75 4486.21 1463.99 4472.07 1416.64C4456.16 1359.62 4404.69 1315.17 4363.82 1304.54L4364.26 1303.9L4356.97 1302.93C4352.56 1302.29 4349.02 1301.96 4344.16 1301.96C4318.98 1301.96 4296.44 1316.78 4281.2 1343.84C4267.28 1368.32 4261.32 1399.57 4265.3 1429.2C4269.93 1464.64 4286.28 1494.27 4309.48 1508.77L4312.57 1510.7L4313.44 1511.26C4322.58 1517.14 4330.75 1522.4 4339.74 1535.83C4360.95 1568.04 4385.03 1597.67 4416.18 1597.67C4437.16 1598 4455.5 1583.18 4467.43 1556.44ZM4314.56 1491.05C4295.78 1479.13 4281.86 1454.01 4278.11 1425.34C4274.57 1397.31 4280.98 1369.93 4296.22 1348.35C4309.04 1330.31 4325.16 1320.97 4344.38 1320.97C4389.67 1320.97 4437.16 1371.22 4450.86 1399.57C4454.39 1406.98 4457.49 1415.35 4459.92 1423.73C4472.51 1467.86 4471.4 1513.28 4456.82 1545.17C4447.1 1566.75 4432.52 1578.35 4415.74 1578.35C4397.84 1578.35 4378.62 1564.49 4360.29 1538.08C4356.31 1532.6 4353.22 1528.09 4350.79 1524.23L4350.59 1523.95C4341.68 1511.27 4337.81 1505.76 4314.56 1491.05Z" fill="url(#paint0_linear_689_1450)"/>
<path fill-rule="evenodd" clip-rule="evenodd" d="M4420.82 1288.43C4495.7 1363.49 4511.17 1476.23 4500.79 1556.76C4490.84 1633.75 4457.05 1693.02 4414.85 1707.52C4408.45 1709.77 4401.6 1710.74 4394.31 1710.74C4383.04 1710.74 4371.55 1708.48 4360.51 1705.91L4356.09 1704.94C4355.63 1704.77 4355.1 1704.69 4354.55 1704.61C4354.05 1704.53 4353.52 1704.45 4353 1704.3L4352.72 1704.24C4336.83 1701.02 4314.87 1696.58 4292.03 1644.06C4288.25 1635.55 4285.14 1627.81 4282.28 1620.7L4282.28 1620.7L4282.27 1620.67C4281.45 1618.65 4280.66 1616.67 4279.88 1614.75C4269.97 1588.37 4266.15 1582.5 4262.28 1576.56L4261.98 1576.09C4259.77 1572.87 4257.56 1569.65 4254.69 1563.85C4240.77 1535.83 4223.54 1521.97 4206.75 1508.77L4206.26 1508.37C4192.75 1497.57 4179.9 1487.3 4169.86 1470.11C4145.78 1429.2 4146 1380.56 4170.97 1325.8C4199.02 1263.95 4243.87 1229.81 4297.55 1229.81C4339.3 1229.81 4383.04 1250.75 4420.82 1288.43ZM4355.65 1685.94C4358.08 1686.26 4360.29 1686.58 4362.72 1687.22L4366.03 1687.87C4373.54 1689.48 4381.05 1691.09 4388.56 1691.41L4391.21 1691.41C4422.8 1691.41 4450.42 1668.22 4468.75 1625.7C4496.15 1562.56 4497.91 1473.01 4473.17 1397.31C4449.98 1327.41 4382.82 1262.02 4323.84 1251.39C4315 1249.78 4306.38 1249.14 4298.21 1249.14C4247.4 1249.14 4208.3 1278.45 4182.23 1336.43C4160.36 1384.43 4159.7 1423.08 4180.02 1457.55C4188.38 1471.92 4199.84 1481.13 4212.21 1491.08L4213.38 1492.02C4262.04 1530.69 4280.04 1576.02 4294.55 1612.59L4294.9 1613.46C4306.83 1644.06 4316.55 1668.22 4339.3 1681.43C4343.71 1683.94 4348.62 1684.76 4353.46 1685.56C4353.91 1685.64 4354.36 1685.72 4354.81 1685.79L4355.27 1685.87L4355.65 1685.94Z" fill="url(#paint1_linear_689_1450)"/>
<path fill-rule="evenodd" clip-rule="evenodd" d="M4506.97 1675.63C4533.26 1586.72 4533.7 1479.45 4508.08 1388.94C4491.51 1332.24 4457.49 1275.23 4414.41 1232.71C4379.95 1198.88 4324.06 1158.3 4252.7 1158.3C4231.94 1158.3 4210.95 1161.84 4190.41 1168.93C4138.27 1187.29 4098.07 1228.2 4067.58 1294.23C4037.98 1357.37 4031.79 1412.13 4049.02 1456.91C4067.14 1504.58 4096.08 1521.33 4121.7 1536.15L4122.81 1536.79C4174.72 1567.07 4184 1582.86 4206.09 1628.28C4210.07 1636.65 4212.72 1643.42 4214.71 1651.47C4216.03 1656.62 4217.36 1661.78 4218.9 1666.93L4222.88 1681.43C4240.33 1752.29 4265.74 1826.06 4320.3 1833.47C4321.85 1833.79 4323.17 1833.79 4324.94 1833.79C4329.14 1833.79 4333.11 1833.15 4337.09 1832.5C4337.46 1832.45 4337.83 1832.4 4338.19 1832.35L4340.63 1832.02C4341.33 1831.92 4342.03 1831.82 4342.74 1831.73C4343.21 1831.66 4343.68 1831.6 4344.16 1831.54C4350.12 1830.89 4355.43 1830.57 4360.73 1830.57C4377.52 1829.93 4391.88 1829.28 4412.64 1817.68C4453.07 1794.49 4486.65 1744.24 4506.97 1675.63ZM4362.38 1810.92C4360.84 1811 4359.32 1811.08 4357.86 1811.24L4357.85 1811.24C4354.76 1811.56 4351.67 1811.89 4348.58 1812.53C4342.17 1813.5 4335.77 1814.46 4328.92 1814.46C4315.22 1814.46 4296.89 1810.92 4277.67 1784.83C4257.12 1756.16 4247.62 1721.05 4237.68 1683.68L4237.4 1682.62C4224.45 1634.96 4211.11 1585.81 4172.51 1550C4158.07 1536.48 4143.41 1527.87 4128.95 1519.38L4127.89 1518.75C4110.66 1508.77 4094.09 1499.1 4080.84 1482.68C4062.72 1460.45 4052.56 1431.46 4052.78 1402.79C4053.44 1350.28 4082.6 1287.79 4111.32 1249.14C4147.11 1201.46 4195.05 1177.3 4253.81 1177.3C4264.19 1177.3 4274.79 1177.95 4285.84 1179.56C4370.67 1191.48 4465 1288.76 4496.15 1396.35C4522.88 1490.73 4519.56 1603.79 4487.53 1691.09C4464.34 1754.23 4429.43 1795.46 4389.01 1807.38C4382.8 1809.3 4376.43 1809.82 4370.18 1810.32L4370.17 1810.33L4370.15 1810.33C4369.07 1810.42 4367.99 1810.5 4366.91 1810.6C4365.4 1810.76 4363.88 1810.84 4362.39 1810.92L4362.38 1810.92Z" fill="url(#paint2_linear_689_1450)"/>
<path fill-rule="evenodd" clip-rule="evenodd" d="M4455.28 1232.38C4395.41 1150.57 4319.86 1098.06 4248.29 1088.4C4235.69 1086.78 4223.1 1086.14 4210.73 1086.14L4208.3 1086.14C4155.5 1086.14 4108.67 1100.31 4068.91 1128.02C4027.16 1157.33 3991.81 1202.43 3963.75 1262.34C3923.77 1346.42 3916.04 1417.28 3940.78 1473.33C3965.78 1531.21 4000.79 1547.82 4037.82 1565.39L4038.64 1565.78C4078.63 1584.47 4119.72 1604.12 4150.42 1678.2C4154.4 1688.19 4161.69 1706.87 4163.68 1721.69C4167.87 1754.23 4174.28 1794.49 4197.26 1860.85C4210.73 1901.11 4231.06 1930.11 4256.24 1944.92C4270.16 1952.98 4286.28 1957.16 4303.73 1957.16C4314.56 1957.16 4326.05 1955.55 4338.42 1952.65C4402.48 1936.23 4461.91 1878.57 4501.01 1793.53C4542.1 1704.62 4558.44 1594.13 4547.4 1482.03C4544.31 1449.82 4538.78 1418.25 4530.83 1387.97C4516.25 1333.85 4489.96 1280.06 4455.28 1232.38ZM4303.51 1938.48C4259.33 1938.48 4229.29 1911.1 4209.18 1852.8C4187.09 1788.69 4180.91 1749.72 4176.71 1718.47C4173.4 1692.38 4151.31 1625.38 4105.14 1585.11C4084.81 1567.39 4063.61 1557.41 4043.06 1547.74L4042.32 1547.39C4020.28 1536.89 3999.34 1526.92 3981.43 1508.12C3954.92 1480.42 3939.67 1442.41 3939.9 1403.43C3940.12 1334.5 3979.44 1251.07 4018.54 1198.88C4065.81 1136.39 4130.32 1104.82 4210.07 1104.82C4222.22 1104.82 4234.59 1105.47 4247.18 1107.08C4314.34 1115.13 4388.56 1166.67 4445.78 1244.95C4479.36 1291.01 4504.54 1342.87 4518.46 1394.74C4525.97 1423.73 4531.49 1454.01 4534.36 1484.61C4558.44 1726.2 4450.2 1905.62 4336.21 1933.33C4324.5 1937.19 4313.45 1938.48 4303.51 1938.48Z" fill="url(#paint3_linear_689_1450)"/>
<path fill-rule="evenodd" clip-rule="evenodd" d="M4113.31 1793.53C4110.66 1773.23 4105.8 1754.23 4098.51 1736.51C4059.41 1638.91 4006.61 1617.32 3955.58 1596.71L3955.48 1596.67C3927.02 1585.09 3900.1 1574.13 3875.39 1550.97C3837.39 1515.85 3814.64 1461.42 3814.2 1405.37C3814.2 1352.86 3829.22 1295.84 3860.37 1231.1C3910.07 1125.44 3972.37 1062.3 4056.54 1032.67C4091.44 1020.75 4129.44 1014.31 4166.11 1014.31C4220.01 1014.31 4271.04 1027.84 4313.68 1053.28C4349.02 1073.9 4382.6 1100.96 4413.53 1133.81C4458.37 1181.17 4494.38 1235.28 4520.89 1294.55C4549.39 1358.66 4566.84 1429.52 4572.58 1504.58C4577.88 1571.9 4575.23 1639.23 4564.19 1705.26C4553.8 1766.79 4536.79 1824.45 4512.94 1877.28C4490.62 1927.21 4462.79 1970.69 4429.87 2006.13C4383.48 2057.02 4324.94 2087.3 4273.47 2087.3C4216.92 2087.3 4175.39 2048.33 4150.2 1971.02C4123.01 1887.56 4117.8 1836.8 4113.62 1796.04L4113.53 1795.14L4113.31 1793.53ZM4273.91 2067.65C4288.93 2067.65 4305.28 2064.43 4322.51 2058.63C4480.02 1992.92 4579.65 1760.67 4559.77 1506.19C4556.9 1468.18 4550.71 1430.49 4541.65 1394.41C4494.6 1211.12 4345.49 1050.06 4209.18 1035.57C4194.6 1033.96 4180.02 1033.31 4166.11 1033.31C4065.81 1033.31 3985.18 1072.29 3926.2 1149.6C3876.94 1215.31 3827.23 1319.68 3827.45 1405.04C3827.45 1453.68 3848.22 1502 3882.68 1534.54C3905.63 1556.1 3931.67 1566.73 3959.25 1577.99L3959.34 1578.02L3962.54 1579.37C3987.62 1589.89 4013.63 1600.8 4038.42 1621.19C4082.38 1657.59 4118.61 1727.17 4126.34 1790.3L4126.79 1794.49C4130.76 1833.47 4135.84 1882.11 4162.13 1962.32C4184.88 2032.22 4222.44 2067.65 4273.91 2067.65Z" fill="url(#paint4_linear_689_1450)"/>
<path fill-rule="evenodd" clip-rule="evenodd" d="M3871.99 1627.44C3839.68 1615.58 3806.31 1603.33 3776.86 1577.38C3730.69 1537.76 3701.98 1472.05 3701.53 1406.33C3701.31 1344.48 3719.43 1276.52 3756.76 1199.21C3819.28 1070.03 3888.87 999.811 3989.6 964.378C4032.46 949.56 4076.64 942.151 4120.82 942.151L4124.58 942.151C4181.13 942.473 4229.07 949.882 4293.13 986.926C4422.58 1062.63 4580.09 1249.14 4597.54 1525.84C4607.48 1677.24 4581.86 1830.89 4525.75 1958.78C4490.18 2040.27 4443.13 2107.6 4389.23 2153.34C4341.51 2193.93 4290.04 2216.47 4244.09 2216.47C4223.1 2216.47 4203.88 2211.96 4187.09 2202.62C4150.42 2182.33 4122.15 2141.1 4102.93 2079.89C4072.42 1983.6 4067.49 1923.68 4063.55 1875.69L4063.38 1873.73C4061.17 1846.03 4057.42 1822.19 4046.37 1794.17C3999.1 1673.7 3934.81 1650.18 3872.52 1627.63L3871.99 1627.44ZM3714.79 1406.33C3715.01 1465.6 3740.86 1523.26 3783.71 1560.95C3811.77 1585.76 3842.92 1597.03 3875.83 1608.63C3907.86 1620.22 3940.78 1632.14 3971.93 1657.27C4026.27 1700.75 4068.91 1785.15 4075.75 1862.14L4076.2 1867.94L4076.28 1868.91C4080.45 1919.57 4085.22 1977.42 4114.86 2071.52C4123.47 2099.87 4135.4 2124.99 4150.64 2146.25C4174.72 2179.43 4207.86 2196.83 4246.3 2196.83C4320.96 2196.83 4408.22 2131.43 4473.83 2026.1C4557.34 1892.1 4596.66 1714.93 4584.29 1527.45C4564.63 1217.89 4350.35 981.772 4170.3 963.733C4155.06 962.122 4139.82 961.478 4124.8 961.478C4040.41 961.478 3921.12 985.638 3833.42 1099.99C3785.48 1162.48 3714.13 1295.84 3714.79 1406.33Z" fill="url(#paint5_linear_689_1450)"/>
<path fill-rule="evenodd" clip-rule="evenodd" d="M3994.46 1851.83C4004.4 1877.92 4010.37 1906.27 4012.35 1935.9C4012.46 1938.16 4012.63 1940.41 4012.8 1942.67C4012.96 1944.92 4013.13 1947.18 4013.24 1949.43C4016.77 2006.13 4021.41 2076.99 4055.87 2189.09C4077.74 2260.28 4110.22 2307.96 4152.63 2331.15C4171.63 2341.46 4192.84 2346.94 4215.37 2346.94C4311.02 2346.93 4448.21 2252.23 4538.78 2040.59C4569.49 1969.41 4592.46 1892.1 4606.82 1810.6C4655.86 1534.22 4593.79 1331.28 4533.26 1209.84C4484.66 1112.88 4418.39 1029.12 4341.07 967.599C4271.04 911.871 4196.37 878.048 4130.54 872.572L4128.11 872.25C4112.43 870.961 4096.74 870.317 4081.5 870.317C3980.1 870.317 3836.95 898.986 3731.8 1035.89C3704.63 1071.32 3678.78 1114.49 3652.71 1167.64C3608.97 1257.51 3587.99 1336.11 3588.65 1407.62C3588.87 1448.53 3598.15 1487.51 3616.04 1523.59C3662.65 1616.04 3723.62 1636.33 3787.91 1657.59L3787.94 1657.6C3862.38 1682.4 3938.8 1707.86 3994.46 1851.83ZM3602.12 1407.62C3601.68 1340.3 3621.79 1265.56 3663.76 1178.91C3689.16 1126.73 3714.35 1084.85 3740.86 1050.38C3842.92 917.67 3982.53 889.645 4081.72 889.645C4098.29 889.645 4115.08 890.289 4132.09 891.899C4320.08 909.294 4523.98 1134.14 4586.94 1393.12C4629.13 1568.68 4617.65 1774.84 4555.13 1959.1C4497.47 2129.5 4402.26 2256.74 4294.23 2308.28C4265.74 2321.49 4239.01 2327.93 4214.49 2327.93L4214.27 2327.93C4172.73 2327.93 4137.61 2308.6 4110 2270.91C4093.21 2248.04 4078.85 2217.76 4067.8 2181.04C4034.22 2071.84 4029.81 2003.23 4026.27 1947.82C4026.16 1945.41 4026 1943.07 4025.83 1940.74C4025.66 1938.4 4025.5 1936.07 4025.39 1933.65C4021.19 1870.51 3995.34 1801.58 3954.48 1744.24C3905.01 1676.62 3847.81 1657.6 3792.6 1639.25L3792.55 1639.23L3791.03 1638.72C3753.15 1626.03 3717.45 1614.06 3684.97 1586.72C3633.71 1544.52 3602.57 1477.2 3602.12 1407.62Z" fill="url(#paint6_linear_689_1450)"/>
<path fill-rule="evenodd" clip-rule="evenodd" d="M3485.26 1478.81C3479.74 1456.58 3476.65 1432.75 3476.43 1408.91C3475.99 1363.81 3483.28 1315.17 3497.86 1263.95C3509.78 1223.69 3526.57 1181.81 3548.89 1136.07C3578.71 1075.19 3608.09 1026.23 3639.02 985.96C3758.75 830.696 3922 798.161 4037.98 798.161C4056.32 798.483 4075.31 799.128 4094.09 800.738C4168.1 807.181 4252.04 845.192 4330.69 908.328C4417.28 977.907 4491.95 1072.61 4546.29 1182.13C4614.78 1320 4684.36 1550 4627.81 1863.1C4611.46 1954.91 4585.62 2041.88 4551.37 2122.41C4506.09 2229.68 4446.44 2319.88 4378.84 2383.34C4318.31 2440.35 4253.37 2473.53 4195.93 2476.75C4192.4 2477.07 4189.08 2477.07 4185.55 2477.07C4162.57 2477.07 4139.82 2471.28 4117.95 2460C4094.31 2446.79 4072.22 2426.18 4054.55 2399.76C4036.21 2372.38 4020.75 2338.24 4008.6 2297.97C3970.38 2171.06 3966.18 2091.49 3962.87 2027.71C3962.66 2024.3 3962.5 2020.96 3962.34 2017.66C3962.16 2014.11 3961.99 2010.6 3961.77 2007.09C3959.56 1969.73 3953.37 1938.48 3942.33 1909.49C3878.48 1741.99 3790.12 1714.61 3704.63 1688.19L3704.33 1688.1C3631.1 1665.26 3561.63 1643.6 3508.02 1540.01C3498.52 1521.33 3490.79 1500.71 3485.26 1478.81ZM3489.46 1408.91C3490.34 1489.12 3526.35 1565.46 3586.22 1613.46C3624.22 1644.06 3665.53 1656.62 3709.27 1669.83C3772.89 1689.48 3838.5 1709.77 3895.27 1787.41C3917.58 1818.01 3936.8 1855.05 3954.03 1900.15C3972.15 1947.82 3974.36 1989.7 3975.9 2020.3L3976.12 2025.46L3976.17 2026.38C3979.48 2089.04 3983.6 2167.15 4020.75 2290.24C4053.66 2399.76 4111.1 2457.75 4186.43 2457.75C4215.81 2457.75 4247.84 2449.05 4281.86 2431.98C4540.55 2300.87 4702.92 1786.12 4609.47 1392.16C4530.39 1059.4 4280.1 836.172 4093.65 819.744C4075.31 818.133 4056.76 817.489 4038.86 817.489C3925.09 817.489 3764.94 849.057 3648.29 1000.46C3618.03 1039.75 3589.31 1087.75 3560.15 1147.34C3511.77 1246.56 3488.8 1331.92 3489.46 1408.91Z" fill="url(#paint7_linear_689_1450)"/>
<path fill-rule="evenodd" clip-rule="evenodd" d="M3912.5 2104.38C3912.28 2095.36 3911.84 2086.98 3911.4 2078.61C3909.19 2034.47 3902.78 2000.33 3890.19 1967.15C3817.95 1776.13 3718.1 1746.82 3621.34 1718.79L3620.54 1718.56C3538.22 1694.49 3460.32 1671.71 3399.55 1556.44C3388.73 1535.5 3380.11 1512.63 3373.7 1488.15C3367.3 1463.03 3363.76 1436.61 3363.54 1409.88C3362.88 1359.3 3371.27 1304.54 3388.28 1247.53C3401.54 1202.43 3420.32 1155.72 3445.5 1104.18C3479.08 1035.89 3511.99 980.806 3546.68 936.031C3680.77 762.405 3864.57 726.006 3995.12 726.006L3995.79 726.006C4015.45 726.006 4035.55 726.972 4055.87 728.582C4168.54 737.924 4295.34 810.402 4403.36 927.333C4427.89 953.748 4451.52 982.417 4473.83 1012.7C4554.25 1122.22 4613.23 1251.07 4644.82 1385.39C4681.71 1542.91 4683.48 1731.03 4649.46 1915.93C4630.9 2017.4 4602.4 2114.68 4564.63 2204.23C4529.06 2289.27 4485.1 2365.94 4433.85 2431.65C4383.48 2495.76 4329.14 2544.08 4272.81 2574.35C4237.24 2593.68 4203.22 2604.63 4171.41 2606.89C4166.77 2607.21 4162.13 2607.53 4157.49 2607.53C4132.09 2607.53 4107.35 2601.09 4083.49 2588.85C4056.76 2574.68 4032.24 2551.16 4012.35 2521.53C3991.81 2490.92 3974.8 2452.59 3961.32 2407.49C3919.45 2265.78 3915.61 2176.64 3912.53 2104.89L3912.5 2104.38ZM4055.21 747.91C4035.11 746.299 4014.78 745.333 3995.12 745.333C3867 745.333 3686.73 781.089 3555.73 950.848C3521.93 994.657 3489.46 1048.45 3456.55 1115.78C3401.98 1227.55 3375.91 1323.87 3376.8 1410.2C3377.9 1500.71 3419.21 1586.72 3487.47 1639.87C3530.08 1672.86 3576.18 1686.42 3625.12 1700.82L3626.64 1701.27C3725.18 1730.2 3827.18 1760.14 3901.9 1958.45C3921.77 2010.92 3923.77 2057.59 3925.53 2098.8L3925.54 2098.9L3925.76 2103.73L3925.79 2104.37C3928.87 2174.16 3932.73 2261.35 3973.7 2399.76C4010.15 2522.81 4074.21 2587.88 4159.04 2587.88C4192.84 2587.88 4229.73 2577.25 4268.39 2556.32C4504.32 2429.08 4675.97 2005.16 4659.18 1591.23C4651 1384.11 4584.07 1189.22 4466.1 1027.84C4348.14 866.452 4190.63 759.184 4055.21 747.91Z" fill="url(#paint8_linear_689_1450)"/>
<path fill-rule="evenodd" clip-rule="evenodd" d="M3861.03 2150.12C3859.48 2114.04 3855.51 2070.87 3838.5 2025.46C3757.87 1810.6 3645.2 1779.35 3535.85 1749.39L3535.19 1749.21C3443.76 1723.83 3357.2 1699.81 3291.3 1573.51C3279.15 1550.64 3269.43 1525.2 3262.37 1498.14C3255.08 1470.11 3251.32 1441.12 3250.88 1411.49C3250.22 1355.44 3259.27 1294.88 3278.27 1231.74C3293.07 1181.81 3314.06 1129.95 3341.89 1072.93C3379.23 997.234 3415.9 936.353 3454.11 886.746C3524.81 795.262 3614.94 729.549 3721.64 691.86C3792.55 666.735 3870.09 654.172 3952.27 654.172C4042.18 654.172 4113.31 665.446 4211.39 721.818C4278.99 760.795 4342.61 812.657 4400.93 875.793C4427.66 904.462 4453.51 935.709 4477.81 968.887C4567.28 1090.97 4632.89 1234.64 4667.57 1384.75C4707.78 1556.76 4708.88 1763.89 4670.89 1968.12C4650.56 2079.89 4619.19 2186.84 4577.88 2285.73C4539 2379.79 4491.07 2464.51 4435.18 2537.95C4380.17 2609.79 4320.96 2663.91 4259.55 2698.69C4220.01 2720.92 4182.23 2733.81 4146.67 2737.03L4146.03 2737.06C4140.51 2737.37 4135.2 2737.67 4129.88 2737.67C4101.16 2737.67 4073.99 2730.91 4049.02 2717.7C4019.42 2701.92 3992.25 2675.82 3970.38 2642.97C3947.85 2609.14 3928.85 2566.62 3914.27 2516.69C3868.61 2360.16 3865.05 2261.53 3862.19 2182.22L3862.14 2180.72C3861.91 2171.38 3861.47 2160.42 3861.03 2150.12ZM3388.73 1666.29C3436.44 1702.36 3488.13 1716.86 3542.7 1732L3542.72 1732.01C3652.95 1762.61 3766.71 1794.19 3849.76 2016.76C3871.63 2074.42 3873.4 2126.92 3874.95 2173.31L3875.17 2179.11C3877.82 2257.38 3881.35 2354.99 3926.42 2509.61C3941.88 2562.44 3962.21 2606.25 3986.73 2639.75C4025.39 2692.25 4073.32 2718.99 4129.88 2718.99C4168.76 2718.99 4210.73 2706.1 4255.13 2680.98C4511.83 2535.38 4700.27 2066.04 4684.36 1612.49C4676.41 1384.75 4600.42 1161.52 4470.3 983.705C4340.18 805.892 4166.33 687.995 4016.99 676.076C3995.56 674.466 3974.14 673.499 3953.15 673.499C3809.78 673.499 3608.75 713.121 3462.95 901.563C3425.4 949.882 3389.39 1009.8 3352.72 1084.53C3291.97 1208.55 3263.03 1315.49 3264.13 1411.49C3265.68 1530.67 3329.52 1621.19 3388.73 1666.29Z" fill="url(#paint9_linear_689_1450)"/>
<path fill-rule="evenodd" clip-rule="evenodd" d="M4436.72 2644.9C4497.25 2564.05 4549.39 2470.95 4591.36 2367.87C4636.2 2259.64 4670.22 2143.03 4692.76 2020.95C4726.78 1837.66 4733.4 1663.39 4711.98 1503.61C4691.65 1351.25 4645.26 1206.29 4574.35 1072.61C4546.29 1020.11 4515.14 970.498 4482.01 924.756C4426.34 848.735 4364.04 782.7 4297.55 728.26C4263.53 700.558 4227.74 676.076 4191.51 655.138C4156.83 635.166 4120.82 618.738 4084.37 606.497C4052.56 595.867 4020.09 588.458 3987.61 585.237L3979.44 584.593C3956.46 582.982 3933.49 582.016 3910.96 582.016L3910.29 582.016C3878.92 582.016 3848 583.627 3818.17 586.848C3763.39 592.646 3708.6 604.887 3655.14 623.57C3538.06 664.802 3439.53 736.636 3362 836.816C3320.02 890.933 3279.82 957.935 3238.73 1041.37C3208.02 1103.86 3185.05 1160.87 3168.7 1215.63C3147.93 1284.89 3137.77 1351.25 3138.66 1412.77C3139.1 1445.31 3143.52 1477.2 3151.47 1507.48C3159.42 1537.11 3170.25 1564.82 3183.5 1589.94C3208.91 1637.94 3243.81 1679.17 3284.24 1709.45C3338.06 1749.81 3397.78 1765.65 3455.8 1781.03L3456.92 1781.33C3575.5 1812.88 3698.04 1845.49 3786.58 2083.12C3804.92 2132.4 3809.12 2178.79 3810.66 2221.31C3811.11 2232.9 3811.55 2244.5 3811.77 2256.74C3814.2 2344.04 3817.29 2452.91 3867.22 2625.57C3883.12 2680.33 3903.67 2727.04 3928.63 2764.41C3952.71 2800.81 3982.53 2829.16 4015.01 2846.55C4041.96 2860.72 4071.12 2868.13 4102.04 2868.13C4108.67 2868.13 4115.52 2867.81 4122.37 2867.17C4161.47 2863.3 4203.22 2848.48 4246.52 2822.71C4313.23 2783.74 4377.08 2723.82 4436.72 2644.9ZM3290.2 1692.38C3224.37 1643.42 3153.46 1543.88 3151.69 1412.45C3150.36 1307.12 3182.17 1189.22 3249.33 1052.64C3289.76 970.498 3329.3 904.463 3370.61 851.312C3530.55 644.83 3751.9 601.343 3909.41 601.343C3932.16 601.343 3955.36 602.31 3978.55 603.921C4141.81 616.161 4331.57 745.011 4474.06 939.896C4617.87 1136.71 4701.37 1383.14 4709.32 1633.75C4724.35 2126.6 4518.9 2641.36 4241.66 2805.32C4193.06 2833.99 4146.45 2848.48 4103.37 2848.48C4041.07 2848.48 3987.83 2818.85 3945.2 2760.54C3918.25 2723.82 3896.16 2675.82 3879.59 2618.49C3834.08 2461.29 3827.89 2360.79 3825.02 2255.13L3824.8 2250.62C3823.26 2194.89 3821.49 2137.23 3798.07 2074.1C3706.61 1828.31 3580.92 1794.81 3459.42 1762.6C3399.55 1746.82 3342.78 1731.68 3290.2 1692.38Z" fill="url(#paint10_linear_689_1450)"/>
<path fill-rule="evenodd" clip-rule="evenodd" d="M4438.27 2751.2C4501.67 2665.84 4557.78 2564.37 4605.06 2449.69C4653.21 2332.44 4690.11 2205.84 4714.63 2073.77C4740.03 1937.19 4751.08 1795.78 4747.32 1654.37C4744.45 1545.81 4728.76 1437.58 4700.71 1333.21C4673.76 1232.71 4635.54 1135.43 4586.94 1043.62C4556.23 985.96 4522.21 931.199 4485.54 881.269C4425.23 798.806 4358.08 727.616 4285.84 668.667C4248.95 638.71 4210.07 611.973 4170.75 589.103C4132.97 567.52 4093.87 549.804 4054.55 536.274C4017.21 523.712 3979 515.658 3940.78 512.759C3916.26 510.827 3891.74 510.182 3867.66 510.182L3867.22 510.182C3832.53 510.182 3798.29 512.115 3765.38 515.658C3705.73 522.101 3646.09 535.308 3587.99 555.602C3460.52 600.699 3353.38 678.653 3269.21 787.209C3223.49 846.158 3179.52 918.958 3134.9 1009.8C3101.32 1078.09 3076.36 1139.94 3058.69 1199.21C3048.3 1233.03 3040.13 1268.46 3034.17 1304.54C3028.2 1340.3 3025.55 1377.02 3025.77 1414.06C3026.21 1449.5 3031.07 1483.96 3039.91 1517.14C3048.52 1549.36 3060.45 1579.31 3075.03 1606.69C3102.87 1658.88 3141.09 1703.65 3185.49 1736.19C3244.29 1779.38 3309.2 1796.2 3372.2 1812.52L3373.87 1812.95C3503.42 1846.42 3637.57 1881.08 3734.45 2141.74C3753.23 2192.32 3758.31 2239.02 3760.08 2293.78C3760.32 2300.68 3760.49 2307.66 3760.68 2314.91C3760.83 2320.87 3760.98 2327.01 3761.18 2333.41L3761.18 2333.73C3763.39 2429.08 3766.26 2547.62 3820.16 2736.06C3836.51 2793.4 3857.72 2842.36 3883.34 2881.98C3907.86 2920.64 3938.57 2951.56 3971.93 2971.86C4003.3 2990.54 4037.76 3000.2 4074.43 3000.2C4080.39 3000.2 4086.58 2999.88 4092.54 2999.56C4136.95 2996.02 4184.44 2978.62 4233.48 2948.66C4305.06 2903.57 4373.98 2837.53 4438.27 2751.2ZM4071.56 2979.59C4038.86 2979.59 4007.05 2970.57 3976.79 2952.85C3950.06 2936.74 3925.76 2913.87 3904.77 2884.88C3874.95 2843.97 3850.43 2791.14 3832.31 2727.69C3779.4 2542.83 3776.65 2426.32 3774.45 2332.68L3774.43 2332.12L3774.43 2331.15L3774.39 2329.4C3772.64 2259.92 3771.13 2199.8 3746.16 2132.08C3646.16 1863.29 3509.31 1828.04 3376.86 1793.92L3376.58 1793.85C3311.19 1777.1 3249.33 1760.99 3191.45 1718.79C3118.99 1665.64 3041.01 1557.73 3039.03 1413.74C3037.48 1298.74 3072.38 1170.22 3145.72 1021.07C3189.91 931.199 3233.21 859.365 3278.05 801.705C3452.57 576.862 3694.24 529.51 3866.55 529.51C3890.63 529.51 3915.6 530.476 3940.12 532.087C4117.07 544.972 4323.17 684.451 4477.81 896.087C4582.74 1039.43 4659.62 1210.16 4700.71 1389.58C4720.37 1475.27 4731.64 1564.82 4734.29 1655.01C4749.31 2196.18 4531.71 2744.11 4228.4 2929.66C4174.28 2962.84 4122.37 2979.59 4074.21 2979.59L4071.56 2979.59Z" fill="url(#paint11_linear_689_1450)"/>
<path fill-rule="evenodd" clip-rule="evenodd" d="M2928.79 1526.48C2938.29 1561.27 2951.1 1593.81 2967.01 1623.12C2997.27 1679.49 3038.8 1727.49 3086.96 1762.28C3115.9 1783.22 3148.6 1799.97 3187.04 1813.82C3220.8 1826.05 3256.11 1834.74 3290.09 1843.11L3290.2 1843.13L3290.51 1843.21C3431.57 1878.3 3577.24 1914.53 3682.31 2199.08C3707.82 2268.32 3709.03 2330.23 3710.57 2408.29L3710.59 2409.43L3710.6 2409.67C3712.58 2512.71 3715.06 2640.87 3772.89 2844.62C3790.56 2906.46 3813.54 2959.94 3840.93 3002.78C3867.44 3044.66 3900.79 3078.16 3937.02 3100.06C3970.6 3119.71 4007.27 3129.7 4046.15 3129.7C4053.22 3129.7 4060.51 3129.37 4067.8 3128.73C4115.96 3124.22 4167.21 3105.22 4220.23 3071.71C4259.77 3046.59 4297.99 3015.99 4333.78 2980.88C4371.11 2944.15 4406.68 2902.6 4439.59 2857.82C4473.83 2811.12 4506.09 2760.22 4535.25 2706.75C4565.51 2651.34 4593.35 2592.39 4618.31 2531.83C4669.78 2404.92 4709.32 2268.66 4735.83 2126.6C4763.45 1979.71 4775.82 1827.99 4772.5 1675.63C4766.76 1437.58 4703.36 1201.78 4588.71 994.013C4558.22 938.607 4524.64 885.779 4489.08 837.138L4471.85 813.945C4430.09 759.506 4385.25 709.255 4338.2 664.48C4292.47 620.993 4244.09 582.338 4194.38 549.803C4146.89 518.557 4097.4 492.787 4046.82 473.782C3999.54 455.743 3950.94 444.791 3902.12 440.925C3876.05 438.993 3849.99 438.026 3824.36 438.026C3786.36 438.026 3748.81 439.959 3712.8 444.147C3648.52 450.911 3584.01 465.729 3521.05 487.311C3383.42 535.952 3267.45 620.027 3176.65 737.28C3127.39 800.738 3079.67 879.659 3031.29 978.229C2995.06 1052 2967.89 1119 2948.67 1183.1C2937.63 1219.82 2928.57 1257.83 2922.16 1296.81C2915.76 1335.46 2912.89 1375.41 2913.11 1415.03C2913.99 1453.36 2919.07 1490.73 2928.79 1526.48ZM4043.5 3110.37C4008.6 3110.37 3974.58 3100.71 3942.33 3082.02C3913.17 3064.63 3886.66 3039.82 3863.9 3008.26C3831.43 2963.8 3805.14 2906.46 3785.48 2837.21C3728.49 2636.85 3726.06 2510.25 3724.29 2408.78C3722.74 2327.61 3721.42 2263.5 3694.46 2189.74C3645.86 2057.99 3584.67 1966.51 3507.35 1910.13C3439.44 1860.3 3366.32 1842.15 3295.52 1824.57L3293.73 1824.13L3291.27 1823.51C3221.27 1806.03 3154.94 1789.46 3093.37 1744.88C3014.5 1687.87 2929.23 1571.26 2927.02 1414.71C2925.26 1290.05 2963.03 1150.89 3042.56 989.181C3090.5 891.9 3137.33 814.268 3185.93 751.454C3374.81 507.927 3637.25 457.032 3824.14 457.032C3849.76 457.032 3876.05 457.998 3902.34 459.931C4096.08 473.782 4311.69 618.416 4479.14 847.446C4652.55 1085.5 4752.18 1379.92 4759.25 1676.27C4772.95 2258.03 4539 2850.42 4214.93 3054.32C4155.72 3091.36 4098.95 3110.37 4046.15 3110.37L4043.5 3110.37Z" fill="url(#paint12_linear_689_1450)"/>
</mask>
<g mask="url(#mask0_689_1450)">
<g filter="url(#filter0_f_689_1450)">
<circle cx="3726.48" cy="1207.57" r="946.599" transform="rotate(1.53506 3726.48 1207.57)" fill="#0B5EFF"/>
<circle cx="4273.16" cy="846.544" r="358.978" transform="rotate(1.53506 4273.16 846.544)" fill="#4200FF"/>
<circle cx="3767.2" cy="1255.07" r="230.851" transform="rotate(1.53506 3767.2 1255.07)" fill="#4200FF"/>
<circle cx="4116.85" cy="1072.18" r="230.851" transform="rotate(1.53506 4116.85 1072.18)" fill="#FF20B9"/>
<circle cx="4296.13" cy="1309.03" r="230.851" transform="rotate(1.53506 4296.13 1309.03)" fill="#FF20B9"/>
<circle cx="4009.62" cy="1444.99" r="230.851" transform="rotate(1.53506 4009.62 1444.99)" fill="black"/>
<circle cx="3887.62" cy="884.829" r="230.851" transform="rotate(1.53506 3887.62 884.829)" fill="black"/>
<circle cx="3529.7" cy="922.75" r="245.21" transform="rotate(1.53506 3529.7 922.75)" fill="black"/>
<circle cx="4333.3" cy="2024.92" r="245.21" transform="rotate(1.53506 4333.3 2024.92)" fill="#0B5EFF"/>
<circle cx="3571.47" cy="1673.02" r="329.156" transform="rotate(1.53506 3571.47 1673.02)" fill="black"/>
<circle cx="3040.33" cy="794.721" r="329.156" transform="rotate(1.53506 3040.33 794.721)" fill="black"/>
<circle cx="3120.72" cy="763.728" r="344.619" transform="rotate(1.53506 3120.72 763.728)" fill="black"/>
</g>
</g>
<mask id="mask1_689_1450" style="mask-type:alpha" maskUnits="userSpaceOnUse" x="-629" y="1621" width="2602" height="3479">
<path fill-rule="evenodd" clip-rule="evenodd" d="M828.275 3394.8L829.398 3396.65L828.777 3382.61C828.751 3380.33 828.359 3378.2 827.869 3375.54C824.071 3354.87 809.342 3346.38 795.821 3338.58L795.588 3338.45C781.175 3330.37 768.054 3322.93 764.43 3303.21C764.136 3301.61 763.745 3299.47 763.816 3297.73C763.79 3295.46 763.3 3292.79 762.909 3290.66C760.264 3276.27 752.43 3265.62 742.848 3262.51C739.068 3261.13 734.655 3260.57 730.706 3260.4C701.528 3261.51 666.014 3294.24 663.464 3335.8C662.668 3346.39 663.531 3357.48 665.49 3368.14C668.82 3386.26 675.635 3404.17 685.447 3419.19C703.948 3447.38 730.02 3463.47 756.541 3462.82C775.262 3462.36 802.651 3449.37 817.428 3425.32C823.296 3416.74 826.846 3406.21 828.275 3394.8ZM696.38 3404.06C688.716 3392.2 682.951 3377.89 680.013 3361.9C678.544 3353.9 678.171 3345.48 678.628 3337.3C680.238 3309.82 709.297 3282.47 730.773 3282.08C740.499 3281.71 746.426 3286.25 748.287 3296.37C748.483 3297.44 748.679 3298.51 748.607 3300.25C748.829 3303.59 749.319 3306.25 749.907 3309.45C755.392 3339.3 774.707 3350.61 790.413 3359.32L790.544 3359.4C801.852 3365.78 811.395 3371.16 813.346 3381.78L813.836 3384.45C814.038 3394.08 811.585 3404.18 806.618 3411.26C794.543 3430.83 771.808 3441.43 756.573 3441.67C733.805 3441.42 712.074 3427.64 696.38 3404.06Z" fill="url(#paint13_linear_689_1450)"/>
<path fill-rule="evenodd" clip-rule="evenodd" d="M880.477 3288.71C899.31 3305.92 913.104 3331.95 919.248 3363.26C922.676 3381.91 923.082 3401.18 920.635 3419.84L919.278 3429.51C912.003 3475.2 890.83 3517.75 859.532 3549.97C829.866 3580.42 792.902 3598.86 760.14 3599.66C737.006 3599.56 713.383 3596.79 690.563 3592C687.759 3591.67 685.022 3591.16 682.285 3590.66C679.548 3590.16 676.812 3589.66 674.008 3589.33C643.289 3584.19 615.846 3560.64 594.825 3520.86C581.129 3495.36 570.376 3462.43 563.814 3426.72C556.468 3386.74 554.338 3345.3 558.206 3306.66C562.531 3259.84 581.922 3213.98 612.436 3177.5C639.053 3145.39 671.775 3125.18 696.932 3125.63C702.441 3125.76 707.781 3127.11 713.218 3128.98C729.263 3135.28 742.561 3150.08 751.427 3170.61C766.788 3205.17 792.423 3223.14 822.398 3243.42C842.373 3256.18 862.009 3271.36 880.477 3288.71ZM662.238 3563.65C666.846 3565.27 671.455 3566.9 675.867 3567.46C677.829 3567.77 679.857 3568.12 681.919 3568.49C685.367 3569.09 688.913 3569.72 692.422 3570.14C714.779 3574.54 737.573 3577.06 759.975 3577.45C820.088 3576.24 894.772 3509.35 905.811 3415.92C907.918 3399.67 907.369 3383.89 904.627 3368.97C900.023 3343.92 889.134 3323.04 872.423 3306.71C854.517 3290.29 835.71 3275.36 816.198 3262.98C784.003 3241.29 756.149 3221.89 738.614 3181.9C729.552 3160.3 714.257 3147.43 696.998 3147.31C654.315 3147.42 582.046 3216.79 573.2 3309.37C569.867 3346.66 571.579 3383.7 578.239 3419.94L578.925 3423.67C584.508 3454.05 594.014 3482.33 606.881 3507.58C620.505 3534.82 640.194 3554.55 662.238 3563.65Z" fill="url(#paint14_linear_689_1450)"/>
<path fill-rule="evenodd" clip-rule="evenodd" d="M626.267 3723.95C643.356 3725.27 661.372 3727.37 677.463 3729.65C706.06 3733.91 734.73 3736.41 763.274 3736.12C813.928 3734.61 869.045 3706.22 915.296 3657.3C964.178 3605.63 998.346 3535.73 1011.42 3459.78L1012.37 3454.27C1018.55 3417.57 1018.47 3378.76 1012.18 3342.37C1004.25 3299.2 985.908 3261.23 960.73 3235.08C920.961 3193.49 881.644 3167.15 846.401 3143.78L845.423 3143.13C802.551 3114.63 765.903 3090.26 738.866 3044.69C724.537 3020.01 705.508 3001.74 683.927 2993.03C674.247 2989.39 664.495 2987.49 654.501 2988.54C617.817 2991.44 571.016 3024.58 532.395 3074.52C488.442 3131.68 459.712 3203.46 452.288 3276.06C445.954 3339.66 447.615 3404.14 457.613 3467.07C458.14 3469.94 458.579 3472.84 459.028 3475.81C459.497 3478.9 459.977 3482.07 460.577 3485.34C471.253 3543.44 488.554 3594.95 510.672 3634.29C542.066 3690.01 581.801 3720.76 626.267 3723.95ZM763.475 3713.76C735.296 3713.91 707.09 3711.79 679.224 3707.26C661.939 3704.87 644.288 3702.63 627.297 3701.84C617.741 3701 608.354 3698.96 599.137 3695.7C570.924 3685.02 546.04 3660.46 524.875 3624.17L523.191 3621.4C502.758 3584.83 486.312 3535.84 476.028 3479.87C463.98 3414.31 461.463 3347.31 468.039 3280.76C475.15 3212.86 501.74 3146.48 543.062 3092.06C579.052 3044.86 622.393 3014.22 655.958 3011.39C682.551 3009 708.088 3026.44 727.934 3059.82C757.248 3109.13 795.36 3134.68 839.706 3164.41L840.494 3164.94C874.811 3187.53 913.299 3213.62 952.042 3253.9C974.805 3277.56 990.702 3310.77 997.754 3349.15C1003.53 3380.6 1003.46 3414.33 997.91 3450.2C972.397 3609.85 856.349 3711.75 763.475 3713.76Z" fill="url(#paint15_linear_689_1450)"/>
<path fill-rule="evenodd" clip-rule="evenodd" d="M1106.04 3322.27C1115.07 3373.58 1114.63 3430.88 1104.2 3489.23C1085.32 3595.43 1038.26 3693.23 971.988 3765.4C910.15 3831.83 835.418 3870.74 767.604 3872.67C732.087 3873.41 696.153 3869.74 661.315 3865.64C635.303 3862.67 606.17 3859.77 578.989 3858.96C520.777 3857.71 468.286 3819.38 427.446 3748.5C397.468 3696.23 373.521 3625.61 358.731 3545.13C341.199 3449.72 337.14 3344.47 347.689 3248.37C358.212 3150 395.916 3052.44 453.576 2973.92C503.638 2905.23 564.981 2859.55 613.193 2853.29C627.769 2851.59 642.3 2853.91 656.589 2859.18C683.705 2870.3 708.1 2892.18 727.625 2921.69C766.05 2977.83 814.306 3009.15 870.101 3045.35L873.264 3047.41C924.246 3080.53 981.935 3118.01 1041.18 3182.51C1072.41 3216.01 1095.46 3264.7 1105.55 3319.6L1106.04 3322.27ZM372.524 3539.16C386.726 3616.45 409.72 3684.02 438.477 3733.91L440.82 3738.14C467.697 3784.19 499.899 3814.46 535.769 3828.43C549.692 3833.85 563.955 3836.84 578.459 3836.89C606.006 3837.55 634.407 3840.74 661.614 3843.82C696.452 3847.92 731.655 3851.87 766.708 3850.74C891.051 3847.29 1050.07 3706.33 1089.55 3484.1C1099.64 3428.17 1100.13 3375.42 1091.42 3327.98C1081.92 3276.28 1061.31 3232.34 1031.93 3200.4C973.318 3136.67 915.649 3099.3 864.594 3066.21L864.229 3065.98L861.495 3064.19C805.211 3027.41 756.395 2995.51 716.692 2936.81C686.624 2892.58 650.48 2870.71 614.454 2875.07C569.265 2880.73 511.577 2924.98 463.583 2990.01C408.091 3065.39 372.26 3158.22 362.05 3251.9C351.866 3347.86 355.188 3444.82 372.524 3539.16Z" fill="url(#paint16_linear_689_1450)"/>
<path fill-rule="evenodd" clip-rule="evenodd" d="M529.956 3992.95C566.765 3992.85 605.088 3996.73 642.315 4001.03C645.614 4001.36 648.921 4001.7 652.236 4002.03C691.02 4005.95 730.767 4009.96 769.91 4008.88C855.251 4006.39 948.768 3956.71 1026.56 3872.61C1110.24 3782.22 1170.13 3658.27 1195.57 3523.79C1208.63 3454.14 1211.23 3385.14 1202.62 3323.38L1202.72 3323.91L1200.63 3310.44L1198.38 3298.18C1186.04 3231.02 1158.28 3171.6 1120.43 3129.83C1040.96 3041.51 963.656 2992.13 895.344 2948.49L893.335 2947.21C824.167 2903.39 764.705 2865.5 715.457 2797.9C691.101 2763.43 660.877 2737.54 627.86 2724.16C609.23 2716.58 590.019 2714.38 570.959 2717.26C511.121 2726.35 435.431 2785.63 373.366 2872.15C301.901 2971.48 255.224 3094.84 241.236 3219.13C228.704 3334.28 231.334 3450.94 248.345 3564.83C250.428 3578.3 252.61 3592.3 255.058 3605.63C273.766 3707.43 303.7 3795.71 341.903 3860.76C393.116 3947.58 457.898 3993.11 529.956 3992.95ZM529.792 3970.73C510.242 3970.94 490.737 3967.14 471.839 3960.24C427.581 3943.26 387.572 3904.62 353.762 3846.42C316.682 3783.21 287.505 3696.92 269.288 3597.78C247.028 3474.51 242.634 3348.26 256.328 3222.37C269.539 3102.38 315.075 2983.48 384.007 2887.42C443.905 2804.03 516.135 2747.25 572.585 2738.9C617.945 2732.03 664.795 2758.86 705.086 2813.95C755.572 2882.67 815.347 2921.09 884.302 2965.41L887.233 2967.3C955.109 3010.48 1032.33 3059.71 1111.45 3147.05C1147.34 3186.73 1172.4 3242.07 1184.35 3307.09C1196.1 3371.05 1195.02 3444.03 1180.82 3518.13C1126.4 3806.18 928.874 3982.76 769.38 3986.81C727.257 3987.84 684.156 3983.54 642.614 3979.21C605.753 3974.76 567.429 3970.88 529.792 3970.73Z" fill="url(#paint17_linear_689_1450)"/>
<path fill-rule="evenodd" clip-rule="evenodd" d="M1297.01 3301.92C1308.39 3380.88 1305 3469.04 1287.57 3557.55C1255.67 3720.83 1182.96 3870.92 1082.22 3979.4C988.482 4081.15 875.716 4141.21 772.848 4144.27C724.95 4145.57 676.649 4140.81 629.762 4136.19C627.422 4135.96 625.086 4135.73 622.753 4135.5C621.117 4135.34 619.478 4135.18 617.838 4135.02C615.988 4134.83 614.135 4134.65 612.281 4134.46L612.233 4134.46C568.881 4130.14 524.582 4125.73 481.288 4126.79C437.971 4127.72 394.666 4113.79 355.885 4086.1C317.834 4058.12 284.894 4019.57 257.358 3972.06C211.197 3893.55 174.812 3787.23 152.187 3664.1C149.053 3647.05 145.919 3629.99 143.418 3612.11C123.168 3472.06 120.516 3329.71 135.782 3188.92C152.771 3038.32 208.885 2889.57 294.056 2768.89C367.661 2664.15 457.796 2591.8 529.259 2579.87C552.803 2575.82 576.427 2578.58 599.666 2587.79C635.901 2601.62 671.856 2630.99 703.824 2672.77C763.474 2750.84 834.046 2795.11 915.646 2846.31L916.41 2846.79C1002.31 2900.63 1099.77 2961.95 1200.49 3075.13C1245.31 3125.03 1277.89 3195.71 1292.38 3274.59L1293.26 3279.39C1293.8 3282.32 1294.23 3285.16 1294.65 3287.99C1295.07 3290.83 1295.49 3293.66 1296.03 3296.59L1297.01 3301.92ZM150.606 3192.84C133.767 3348.53 139.332 3504.6 166.978 3657.18C189.408 3779.24 224.571 3883.18 268.754 3957.33C309.568 4025.93 356.628 4070.95 409.006 4091.62C432.61 4100.68 456.893 4104.9 481.489 4104.43C524.885 4103.74 569.19 4107.98 612.568 4112.14L612.669 4112.15C616.503 4112.52 620.33 4112.89 624.149 4113.25C626.318 4113.47 628.49 4113.69 630.665 4113.91C677.341 4118.68 725.428 4123.6 772.684 4122.05C964.841 4116.67 1204.61 3901.31 1272.62 3550.82C1291 3456.8 1292.97 3365.2 1278.18 3284.71C1263.88 3206.89 1233.65 3140.44 1191.14 3092.49C1091.55 2981.16 995.379 2920.48 910.406 2867.41C827.19 2815.38 755.437 2770.29 693.649 2689.89C643.135 2623.93 585.312 2592.82 530.983 2602.05C400.708 2624.39 187.585 2865.33 150.606 3192.84Z" fill="url(#paint18_linear_689_1450)"/>
<path fill-rule="evenodd" clip-rule="evenodd" d="M1378.94 3592.11C1358.72 3693.13 1327.03 3787.21 1284.59 3871.77C1202.84 4034.53 1091.07 4157.61 961.447 4228.25C901.97 4260.63 839.483 4278.76 776.081 4281.25C719.089 4282.39 660.922 4277.12 605.046 4271.53L604.68 4271.67C548.341 4265.69 489.71 4260.04 433.279 4262.09C383.089 4263.99 332.421 4248.37 287.347 4216.28C243.003 4183.9 204.573 4138.93 172.546 4084.04C118.159 3992.74 75.6901 3868.23 49.1471 3723.78C45.3273 3703 41.7751 3681.53 38.5883 3659.93C14.9292 3494.93 11.7926 3326.49 30.1578 3159.92C50.6112 2983.4 115.968 2808.19 214.578 2666.83C256.115 2607.19 302.706 2555.85 353.351 2513.78C400.465 2475.95 446.907 2451.52 487.488 2444.23C515.98 2439.39 544.382 2442.57 571.864 2453.54C613.634 2469.78 654.029 2501.99 692.218 2549.91C762.635 2637.51 844.228 2688.33 938.606 2747.13L942.397 2749.49C1044.73 2813.28 1160.3 2885.31 1280.48 3022.17C1331.81 3079.81 1369.1 3161.21 1385.85 3252.36L1387.03 3258.75C1388.59 3267.28 1390.06 3275.28 1391.26 3283.95L1392.07 3290.49C1404.53 3383.88 1400.13 3487.86 1378.94 3592.11ZM606.076 4249.42C661.952 4255.01 719.388 4260.56 775.917 4259.04C1000.47 4253 1282.11 3998.99 1365.18 3585.49C1388.2 3471.95 1390.86 3360.65 1373.14 3264.18C1356.39 3173.03 1321.34 3095.32 1271.96 3039.78C1152.42 2904.08 1036.82 2832.25 934.821 2768.87L934.142 2768.45C841.78 2711.42 755.052 2657.32 682.773 2566.74C621.769 2490.6 553.24 2454.53 489.578 2466.27C409.975 2480.8 308.856 2563.73 225.415 2683.17C128.972 2821.39 65.1227 2992.02 45.4457 3164.23C24.9992 3349.32 31.3681 3535.35 64.3036 3716.72C90.6508 3860.1 131.899 3982.23 184.138 4070.37L186.383 4074.06C232.714 4151.36 286.726 4202.24 346.663 4225.66C374.876 4236.35 404.035 4241.52 433.213 4240.41C490.009 4238.21 549.005 4243.72 605.71 4249.56L606.076 4249.42Z" fill="url(#paint19_linear_689_1450)"/>
<path fill-rule="evenodd" clip-rule="evenodd" d="M384.807 4397C327.645 4399.34 270.345 4381.74 218.71 4345.93C170.685 4312.7 126.595 4262.52 87.0996 4196.83C24.8533 4092.61 -24.164 3949.52 -54.6248 3783.75C-59.1302 3759.23 -63.4661 3733.51 -66.9729 3708.03C-94.1124 3519.83 -97.6691 3314.98 -76.2958 3130.68C-52.8411 2927.85 21.8548 2726.71 134.269 2564.53C181.211 2495.92 234.597 2436.78 292.33 2388.52C346.069 2344.1 398.993 2316.57 445.155 2307.67C478.132 2301.64 510.946 2305.39 543.036 2317.99C552.351 2321.77 561.764 2326.09 571.373 2331.48C611.199 2354.19 647.644 2386.23 680.147 2426.66C761.329 2525.19 858.593 2585.45 961.954 2649.04L964.336 2650.51C1083.94 2724.29 1219.07 2807.66 1360 2968.82C1417.85 3034.19 1460.41 3127.25 1479.32 3230.12L1480.59 3237.05C1482.65 3248.24 1484.44 3260.11 1486.13 3271.45L1486.52 3273.58C1500.99 3382.18 1495.51 3503.72 1470.57 3626.01C1447.12 3741.43 1410.18 3849.55 1361.46 3946.85C1267.69 4133.74 1139.7 4275.15 991.292 4356.56C923.434 4394.49 851.978 4414.99 779.215 4417.71C714.521 4419.56 648.723 4413.28 585.314 4407.21C519.053 4400.53 450.865 4394.04 384.807 4397ZM283.66 4358.25C316.481 4370.57 350.418 4376.16 384.277 4374.93C451.164 4372.21 520.083 4378.42 586.246 4384.56C649.655 4390.64 714.99 4396.53 778.953 4394.96C1035.81 4387.72 1359.41 4095.61 1456.09 3619.67C1483.38 3486.75 1486.83 3356.29 1466.07 3243.29C1446.97 3139.36 1407.11 3050.39 1351.11 2986.57C1211.11 2825.9 1075.94 2742.75 956.681 2669.38L954.172 2667.83C850.815 2604.04 753.27 2543.83 671.068 2443.34C599.841 2356.35 520.34 2316 447.708 2330.1C356.382 2346.93 240.818 2442.92 145.472 2580.72C35.2241 2739.77 -37.8662 2936.85 -60.6422 3134.84C-84.6966 3349.33 -77.5233 3565.33 -39.2987 3775.48C-8.93574 3940.71 38.8608 4081.43 98.9593 4182.48L101.205 4186.18C154.175 4274.02 215.7 4331.68 283.66 4358.25Z" fill="url(#paint20_linear_689_1450)"/>
<path fill-rule="evenodd" clip-rule="evenodd" d="M565.485 4542.35L565.851 4542.21C636.793 4548.76 710.123 4555.53 782.253 4553.63C860.159 4551.18 940.583 4528.33 1021.14 4484.86C1102.69 4440.43 1179.18 4379.12 1248.98 4302.72C1321.42 4223.57 1385.23 4129.51 1438.43 4022.46C1493.43 3912.43 1535.36 3790.93 1562.31 3660.43C1590.57 3524.28 1597.36 3388.52 1582 3266.55L1580.89 3258.41C1578.88 3243.2 1576.51 3228.14 1573.86 3213.75C1551.53 3092.22 1506.5 2992.13 1439.98 2915.86C1278.02 2729.49 1122.61 2634.25 985.422 2550.75L984.959 2550.46C869.477 2479.79 760.189 2412.9 668.808 2303.12C631.938 2258.11 590.493 2222.32 545.595 2197.59C535.62 2192.35 525.28 2187.24 515.234 2183.74C478.803 2168.84 440.943 2165.35 403.482 2172.56C351.641 2182.54 292.431 2214.24 232.237 2264.04C167.415 2318.5 107.699 2385.82 54.8888 2463.01C-71.2322 2646.54 -155.366 2873.07 -181.456 3102.07C-205.661 3311.47 -202.155 3543.76 -171.241 3756.76C-167.048 3785.97 -162.027 3815.43 -156.836 3843.68C-122.359 4031.3 -66.9896 4191.91 2.75117 4309.19C46.3725 4382.41 95.8547 4438.49 149.709 4475.72C207.637 4515.92 272.3 4535.22 336.237 4531.37C409.788 4527.62 485.72 4534.8 559.1 4541.74L565.485 4542.35ZM14.1473 4294.46C-53.8112 4180.47 -108.058 4021.72 -142.436 3834.63C-185.682 3595.02 -193.928 3349.74 -166.364 3105.31C-140.587 2881.01 -58.0589 2658.53 65.8952 2478.13C172.879 2322.65 303.254 2213.44 405.742 2193.39C510.788 2172.34 601.559 2250.56 659.266 2319.42C751.825 2430.36 860.894 2497.31 976.236 2568.11L979.588 2570.17C1115.95 2653.42 1270.06 2748.03 1430.9 2932.55C1493.88 3004.49 1538.55 3104.72 1560.09 3221.98C1583.9 3351.5 1579.56 3500.59 1548.09 3653.42C1436.81 4192.77 1071.34 4523.52 782.088 4531.41C710.788 4533.56 637.457 4526.8 566.881 4520.09L566.515 4520.24L559.976 4519.63C486.279 4512.83 410.036 4505.8 336.171 4509.69C297.364 4511.71 258.649 4505.7 221.121 4491.23C144.774 4461.65 76.0019 4396.54 16.2951 4297.62L14.1473 4294.46Z" fill="url(#paint21_linear_689_1450)"/>
<path fill-rule="evenodd" clip-rule="evenodd" d="M546.387 4677.21L547.216 4677.45C625.325 4684.64 706.189 4691.89 785.388 4690.08C872.289 4687.55 961.584 4661.8 1051.45 4613.55C1142.21 4563.81 1227.25 4495.73 1304.38 4410.18C1384.97 4322.14 1455.73 4216.8 1515.03 4098.22C1576.41 3975.98 1623.13 3840.04 1653.68 3695C1685.78 3541.35 1693.64 3388.03 1676.27 3250.86L1675.76 3245.92C1673.35 3228.57 1670.85 3210.7 1667.72 3193.64L1667.33 3191.51C1657.43 3137.68 1642.79 3085.7 1623.69 3037.18C1596.75 2969.44 1561.64 2910.6 1519.5 2862.51C1337.29 2652.41 1162.41 2546.01 1008.16 2452.17L1007.6 2451.82C879.652 2373.85 758.732 2299.98 656.738 2179.87C615.501 2130.29 569.518 2091.12 519.352 2063.31C508.549 2057.82 497.746 2052.33 486.871 2048.58C445.831 2032.05 403.558 2028 361.149 2036C303.727 2047.58 238.134 2082.92 171.582 2138.63C99.7698 2199.82 33.6241 2274.8 -24.9556 2361.1C-164.881 2565.45 -257.89 2818.3 -287.543 3072.68C-314.677 3306.65 -310.857 3566.24 -276.436 3804.72C-271.46 3838.2 -266.216 3871 -260.339 3902.98C-221.945 4111.92 -160.393 4291.24 -82.4268 4421.31C-33.8504 4502.3 21.0238 4564.27 80.7076 4605.51C144.83 4649.58 216.491 4670.71 287.4 4666.43C373.08 4661.51 461.111 4669.39 546.387 4677.21ZM-70.5669 4406.96C-146.751 4280.2 -207.18 4102.72 -245.575 3893.78C-294.11 3625.39 -303.16 3350.14 -272.353 3076.46C-243.477 2826.38 -151.61 2577.97 -13.8514 2376.76C105.038 2202.91 249.492 2080.77 363.605 2057.89C480.277 2034.02 582.34 2120.39 647.392 2197.23C751.337 2319.44 873.185 2394.08 1002.42 2472.7L1003.08 2473.1C1156.01 2566.29 1329.57 2672.05 1510.26 2880.41C1579.84 2960.62 1629.59 3071.43 1653.59 3202.02C1680.33 3347.53 1675.3 3516.31 1639.19 3688.66C1514.22 4289.92 1106.77 4658.78 785.223 4667.87C706.122 4670.21 625.624 4662.81 547.052 4655.24L543.805 4654.94C459.531 4647.22 372.188 4639.21 287.137 4643.68C243.383 4646.49 199.792 4639.53 157.557 4622.9C72.8215 4590.31 -4.02518 4517.5 -70.5669 4406.96Z" fill="url(#paint22_linear_689_1450)"/>
<path fill-rule="evenodd" clip-rule="evenodd" d="M1081.29 4741.85C1181.36 4687.33 1274.86 4611.95 1359.78 4517.65C1448.43 4420.17 1526.69 4304.47 1592 4173.83C1659.66 4038.86 1711.27 3889.01 1745.31 3728.89C1781.25 3557.75 1790.2 3386.87 1771.18 3234.34L1770.89 3232.74C1768.26 3212.06 1764.91 3191.66 1761.38 3172.47L1760.99 3170.34C1750.22 3111.71 1734.42 3055.61 1713.81 3003.11C1684.39 2928.34 1645.83 2863.43 1599.59 2810.08C1396.5 2575.67 1202.73 2457.82 1031.33 2353.59L1030.18 2352.89C890.098 2267.81 757.965 2187.56 645.131 2057.01C596.184 1999.58 545.3 1957.2 493.306 1930.09C482.039 1924.21 470.504 1919.01 459.068 1914.34C413.42 1896.18 366.369 1891.71 319.476 1900.89C256.472 1914.09 184.496 1953.06 111.221 2014.83C32.32 2082.22 -40.2549 2164.84 -104.604 2260.25C-176.284 2364.81 -237.616 2483.04 -286.8 2611.94C-339.222 2746.68 -374.716 2892.51 -393.337 3044.89C-422.865 3302.08 -418.632 3589.49 -380.802 3852.93C-375.506 3890.27 -369.479 3927.34 -362.917 3963.05C-320.605 4193.31 -252.602 4390.68 -166.776 4533.67C-113.245 4622.45 -52.9783 4690.3 12.4369 4735.01C83.2179 4783.34 161.778 4805.77 239.56 4800.52C334.138 4794.98 432.188 4804.09 526.656 4812.88L530.852 4813.26C615.197 4820.82 702.584 4828.65 788.522 4826.54C884.32 4823.38 982.584 4795.27 1081.29 4741.85ZM-348.615 3953.46C-402.537 3655.76 -412.295 3351.08 -377.977 3047.46C-345.735 2770.93 -244.893 2496.73 -93.3305 2274.7C37.1961 2083.17 196.46 1947.82 322.101 1921.58C367.069 1912.58 412.096 1916.69 455.721 1934.5C516.487 1958.17 577.15 2004.74 636.052 2073.7C750.397 2205.98 883.488 2287.01 1024.53 2372.89L1025.45 2373.45C1195.96 2476.93 1388.86 2594 1590.14 2826.91C1666.71 2915.25 1720.9 3037.47 1747.25 3180.85C1777.03 3342.88 1771.47 3530.15 1730.83 3722.56C1586.3 4411.43 1137.16 4794.29 788.358 4804.32C705.938 4806.6 621.741 4799.2 539.609 4791.99C535.508 4791.63 531.411 4791.27 527.32 4790.91L524.196 4790.63C430.335 4782.07 333.39 4773.22 239.128 4778.98C190.694 4781.9 142.324 4774.52 95.1159 4756.41C1.8939 4720.28 -82.5642 4640.16 -155.282 4519.47C-239.423 4379.25 -306.303 4183.72 -348.615 3953.46Z" fill="url(#paint23_linear_689_1450)"/>
<path fill-rule="evenodd" clip-rule="evenodd" d="M-498.426 3014.54C-479.812 2853.59 -440.526 2694.28 -382.439 2541.33C-328.439 2400.27 -261.728 2270.8 -183.548 2156.85C-111.164 2049.73 -29.7969 1957.38 51.5649 1888.46C131.197 1820.78 209.46 1777.64 278.142 1763.37C329.519 1753.01 380.983 1758.04 431.338 1778.35C443.14 1782.88 455.601 1788.87 467.697 1794.99C524.031 1824.4 580.014 1871.08 633.694 1932.94C756.723 2074.32 901.111 2161.75 1053.45 2254L1057.59 2256.52C1245.01 2370.35 1457.43 2499.37 1679.48 2756.59C1730.18 2815.04 1772.31 2886.56 1804.19 2968.36C1825.96 3024.99 1843.1 3086.27 1854.65 3149.17L1855.14 3151.83C1859.26 3174.22 1862.74 3197.42 1865.85 3220.77L1865.95 3221.3C1886.88 3388.51 1877.01 3575.75 1837.14 3763.85C1799.97 3938.91 1743.37 4102.12 1669.44 4249.84C1597.84 4393.21 1512.55 4519.65 1415.74 4626.03C1323.02 4729.1 1220.61 4811.39 1111.7 4871.08C1004.05 4929.14 896.548 4960.28 792.12 4963.38C697.419 4966.11 601.026 4957.49 507.753 4948.81C403.73 4939.18 296.123 4929.23 191.552 4935.81C106.798 4941.51 21.2402 4917.24 -55.7357 4865.05C-126.98 4816.33 -193.004 4742.73 -251.125 4646.04C-345.176 4490.26 -419.264 4274.7 -465.591 4022.59C-472.937 3982.61 -479.65 3941.82 -485.632 3900.74C-527.236 3612.5 -531.419 3297.65 -498.426 3014.54ZM507.856 4925.91L508.105 4931.53L508.222 4925.77L516.823 4926.52C607.298 4934.45 700.313 4942.61 791.394 4940.24C1239.21 4927.52 1682.5 4418.98 1822.83 3756.3C1868.12 3544.37 1874.45 3337.95 1841.64 3159.39C1812.95 3003.22 1753.58 2869.88 1670.4 2773.27C1449.14 2516.95 1237.38 2388.57 1050.45 2275.25L1048.6 2274.13L1047.3 2273.34L1047.29 2273.34L1047.29 2273.34L1047.29 2273.34C893.953 2180.63 749.017 2093 624.616 1949.63C560.054 1875.45 493.927 1824.74 427.723 1799.19C379.489 1779.76 329.684 1775.22 280.232 1785.4C141.04 1814.65 -28.3087 1959.08 -172.907 2172.11C-338.177 2415.5 -448.357 2715.62 -483.699 3017.93C-521.364 3341.71 -510.129 3694.94 -451.851 4012.08C-405.524 4264.19 -332.096 4478.3 -240.192 4630.91L-239.069 4632.76C-160.274 4763.07 -68.8635 4849.04 32.0155 4888.46C83.8324 4908.21 137.078 4916.54 190.46 4912.82C295.494 4906.63 403.467 4916.43 507.856 4925.91Z" fill="url(#paint24_linear_689_1450)"/>
<path fill-rule="evenodd" clip-rule="evenodd" d="M-8.72432 1762.91C-96.8093 1837.89 -184.873 1938.56 -263.125 2054.26C-347.61 2178.67 -419.797 2318.85 -478.346 2471.41C-541.517 2637.19 -583.766 2810.23 -604.147 2985.01C-640.338 3293.36 -635.474 3635.37 -590.827 3948.7C-584.427 3994.18 -577.029 4038.71 -569.095 4081.88C-518.85 4355.32 -438.214 4589.46 -336.303 4758.16C-273.325 4862.09 -202.274 4941.73 -124.835 4994.31C-41.2987 5050.22 51.2568 5076.32 142.884 5069.66C256.717 5062.31 374.246 5072.95 487.826 5083.42L496.307 5084.16C594.042 5092.72 695.432 5101.61 794.694 5098.91C907.751 5095.87 1024.49 5061.69 1141.35 4998.32C1259.57 4933.84 1370.43 4844.25 1470.95 4732.43C1575.82 4616.62 1668.51 4479.29 1746.21 4324.38C1826.43 4163.93 1887.91 3986.81 1928.68 3797.21C1972.22 3592.82 1983.36 3389.09 1960.89 3207.06C1957.65 3180.91 1953.68 3155.04 1949.07 3129.99L1948.58 3127.32C1936.14 3059.63 1917.86 2994.22 1894.38 2932.56C1859.94 2843.18 1814.43 2766.13 1759.27 2702.56C1515.31 2419.69 1282.64 2279.23 1076.88 2155.11C911.69 2055.69 755.65 1961.27 621.892 1809.01C563.016 1742.33 502.496 1692.28 441.455 1660.71C428.896 1654.2 415.703 1648.5 402.974 1643.19C348.377 1621.1 292.135 1615.65 235.907 1627.34C162.01 1643.07 77.3632 1689.86 -8.72432 1762.91ZM238.363 1649.23C292.397 1638.4 346.517 1642.96 399.457 1664.55C471.197 1692.51 542.689 1746.84 613.009 1826.77C748.354 1981.26 905.223 2075.93 1071.34 2176.13L1072.56 2176.86C1276.74 2300.17 1508.04 2439.85 1750.02 2720.46L1752.07 2723.08C1840.93 2827.19 1904.19 2971 1935.04 3138.9C1970.79 3333.45 1963.66 3559.03 1914.2 3790.87C1761.11 4509.94 1279.69 5062.52 794.529 5076.7C696.918 5079.73 597.14 5070.98 500.533 5062.5L488.491 5061.45C374.545 5051.13 257.016 5040.49 142.354 5047.59C-38.5371 5058.85 -196.046 4956.43 -324.906 4743.42C-425.035 4578.02 -504.548 4345.73 -554.99 4071.23C-618.458 3725.84 -630.693 3341.58 -589.323 2988.93C-550.882 2660.85 -431.46 2334.26 -252.386 2070.06C-95.8823 1838.67 87.5457 1681.31 238.363 1649.23Z" fill="url(#paint25_linear_689_1450)"/>
</mask>
<g mask="url(#mask1_689_1450)">
<g filter="url(#filter1_f_689_1450)">
<circle cx="1221.47" cy="2118.56" r="946.599" transform="rotate(180 1221.47 2118.56)" fill="#0F003A"/>
<circle cx="340.038" cy="2056.71" r="230.851" transform="rotate(180 340.038 2056.71)" fill="#FF20B9"/>
<circle cx="1179.49" cy="2072.17" r="230.851" transform="rotate(180 1179.49 2072.17)" fill="#0F003A"/>
<circle cx="649.31" cy="2032.41" r="230.851" transform="rotate(180 649.31 2032.41)" fill="#FF20B9"/>
<circle cx="932.076" cy="1888.82" r="230.851" transform="rotate(180 932.076 1888.82)" fill="#792170"/>
<circle cx="520.078" cy="1686.68" r="245.21" transform="rotate(180 520.078 1686.68)" fill="#0F003A"/>
<circle cx="1363.95" cy="1649.13" r="329.156" transform="rotate(180 1363.95 1649.13)" fill="#00B2FF"/>
<circle cx="14.1963" cy="2238.96" r="245.21" transform="rotate(180 14.1963 2238.96)" fill="#0F003A"/>
<circle cx="133.489" cy="1695.52" r="245.21" transform="rotate(180 133.489 1695.52)" fill="#0F003A"/>
</g>
</g>
</g>
<g filter="url(#filter2_f_689_1450)">
<ellipse cx="2586.95" cy="2535.61" rx="1705.68" ry="941.364" transform="rotate(-6.48121 2586.95 2535.61)" fill="#8349FF"/>
</g>
<g filter="url(#filter3_f_689_1450)">
<path d="M3785.61 1956.14C3941 1735.97 3949.88 1567.93 4027.42 1309.85C4177.11 811.664 4066.87 484.499 4244.77 -4.31795C4607.78 -1001.72 5235.52 2137.91 4342.65 2711.82C3781.37 3072.6 2138.96 3159.09 2634.09 2711.82C2831.83 2533.19 3021.08 2552.05 3244.39 2406.67C3474.86 2256.62 3627.03 2180.81 3785.61 1956.14Z" fill="url(#paint26_linear_689_1450)"/>
</g>
<g filter="url(#filter4_f_689_1450)">
<path d="M667.536 2107.12C259.305 2133.98 -7.13272 2284.67 -266.288 2635.26C-791.29 3345.51 2276.08 3571.13 1848.9 2790.85C1579.55 2298.86 1188.98 2072.81 667.536 2107.12Z" fill="#0013FF"/>
</g>
<g filter="url(#filter5_f_689_1450)">
<path d="M684.692 2304.05C345.257 2326.39 123.72 2451.68 -91.7615 2743.19C-528.288 3333.75 2022.16 3521.34 1666.97 2872.56C1443.01 2463.48 1118.26 2275.53 684.692 2304.05Z" fill="#00FFFF"/>
</g>
</g>
<defs>
<filter id="filter0_f_689_1450" x="2135.41" y="-314.788" width="3622.11" height="3169.67" filterUnits="userSpaceOnUse" color-interpolation-filters="sRGB">
<feFlood flood-opacity="0" result="BackgroundImageFix"/>
<feBlend mode="normal" in="SourceGraphic" in2="BackgroundImageFix" result="shape"/>
<feGaussianBlur stdDeviation="287.879" result="effect1_foregroundBlur_689_1450"/>
</filter>
<filter id="filter1_f_689_1450" x="-806.771" y="496.797" width="3630.12" height="3144.12" filterUnits="userSpaceOnUse" color-interpolation-filters="sRGB">
<feFlood flood-opacity="0" result="BackgroundImageFix"/>
<feBlend mode="normal" in="SourceGraphic" in2="BackgroundImageFix" result="shape"/>
<feGaussianBlur stdDeviation="287.879" result="effect1_foregroundBlur_689_1450"/>
</filter>
<filter id="filter2_f_689_1450" x="25.1459" y="716.824" width="5123.61" height="3637.57" filterUnits="userSpaceOnUse" color-interpolation-filters="sRGB">
<feFlood flood-opacity="0" result="BackgroundImageFix"/>
<feBlend mode="normal" in="SourceGraphic" in2="BackgroundImageFix" result="shape"/>
<feGaussianBlur stdDeviation="431.818" result="effect1_foregroundBlur_689_1450"/>
</filter>
<filter id="filter3_f_689_1450" x="1822.58" y="-918.263" width="3696.9" height="4653.66" filterUnits="userSpaceOnUse" color-interpolation-filters="sRGB">
<feFlood flood-opacity="0" result="BackgroundImageFix"/>
<feBlend mode="normal" in="SourceGraphic" in2="BackgroundImageFix" result="shape"/>
<feGaussianBlur stdDeviation="359.848" result="effect1_foregroundBlur_689_1450"/>
</filter>
<filter id="filter4_f_689_1450" x="-1190.59" y="1240.09" width="3944.08" height="2904.55" filterUnits="userSpaceOnUse" color-interpolation-filters="sRGB">
<feFlood flood-opacity="0" result="BackgroundImageFix"/>
<feBlend mode="normal" in="SourceGraphic" in2="BackgroundImageFix" result="shape"/>
<feGaussianBlur stdDeviation="431.818" result="effect1_foregroundBlur_689_1450"/>
</filter>
<filter id="filter5_f_689_1450" x="-717.957" y="1725.48" width="2994.74" height="2130.4" filterUnits="userSpaceOnUse" color-interpolation-filters="sRGB">
<feFlood flood-opacity="0" result="BackgroundImageFix"/>
<feBlend mode="normal" in="SourceGraphic" in2="BackgroundImageFix" result="shape"/>
<feGaussianBlur stdDeviation="287.879" result="effect1_foregroundBlur_689_1450"/>
</filter>
<linearGradient id="paint0_linear_689_1450" x1="4863.02" y1="1945.85" x2="3251.33" y2="1518.48" gradientUnits="userSpaceOnUse">
<stop stop-color="#FC5050"/>
<stop offset="0.56" stop-color="#7E4CA8"/>
<stop offset="1" stop-color="#0048FF"/>
</linearGradient>
<linearGradient id="paint1_linear_689_1450" x1="4863.02" y1="1945.85" x2="3251.33" y2="1518.48" gradientUnits="userSpaceOnUse">
<stop stop-color="#FC5050"/>
<stop offset="0.56" stop-color="#7E4CA8"/>
<stop offset="1" stop-color="#0048FF"/>
</linearGradient>
<linearGradient id="paint2_linear_689_1450" x1="4863.02" y1="1945.85" x2="3251.33" y2="1518.48" gradientUnits="userSpaceOnUse">
<stop stop-color="#FC5050"/>
<stop offset="0.56" stop-color="#7E4CA8"/>
<stop offset="1" stop-color="#0048FF"/>
</linearGradient>
<linearGradient id="paint3_linear_689_1450" x1="4863.02" y1="1945.85" x2="3251.33" y2="1518.48" gradientUnits="userSpaceOnUse">
<stop stop-color="#FC5050"/>
<stop offset="0.56" stop-color="#7E4CA8"/>
<stop offset="1" stop-color="#0048FF"/>
</linearGradient>
<linearGradient id="paint4_linear_689_1450" x1="4863.02" y1="1945.85" x2="3251.33" y2="1518.48" gradientUnits="userSpaceOnUse">
<stop stop-color="#FC5050"/>
<stop offset="0.56" stop-color="#7E4CA8"/>
<stop offset="1" stop-color="#0048FF"/>
</linearGradient>
<linearGradient id="paint5_linear_689_1450" x1="4863.02" y1="1945.85" x2="3251.33" y2="1518.48" gradientUnits="userSpaceOnUse">
<stop stop-color="#FC5050"/>
<stop offset="0.56" stop-color="#7E4CA8"/>
<stop offset="1" stop-color="#0048FF"/>
</linearGradient>
<linearGradient id="paint6_linear_689_1450" x1="4863.02" y1="1945.85" x2="3251.33" y2="1518.48" gradientUnits="userSpaceOnUse">
<stop stop-color="#FC5050"/>
<stop offset="0.56" stop-color="#7E4CA8"/>
<stop offset="1" stop-color="#0048FF"/>
</linearGradient>
<linearGradient id="paint7_linear_689_1450" x1="4863.02" y1="1945.85" x2="3251.33" y2="1518.48" gradientUnits="userSpaceOnUse">
<stop stop-color="#FC5050"/>
<stop offset="0.56" stop-color="#7E4CA8"/>
<stop offset="1" stop-color="#0048FF"/>
</linearGradient>
<linearGradient id="paint8_linear_689_1450" x1="4863.02" y1="1945.85" x2="3251.33" y2="1518.48" gradientUnits="userSpaceOnUse">
<stop stop-color="#FC5050"/>
<stop offset="0.56" stop-color="#7E4CA8"/>
<stop offset="1" stop-color="#0048FF"/>
</linearGradient>
<linearGradient id="paint9_linear_689_1450" x1="4863.02" y1="1945.85" x2="3251.33" y2="1518.48" gradientUnits="userSpaceOnUse">
<stop stop-color="#FC5050"/>
<stop offset="0.56" stop-color="#7E4CA8"/>
<stop offset="1" stop-color="#0048FF"/>
</linearGradient>
<linearGradient id="paint10_linear_689_1450" x1="4863.02" y1="1945.85" x2="3251.33" y2="1518.48" gradientUnits="userSpaceOnUse">
<stop stop-color="#FC5050"/>
<stop offset="0.56" stop-color="#7E4CA8"/>
<stop offset="1" stop-color="#0048FF"/>
</linearGradient>
<linearGradient id="paint11_linear_689_1450" x1="4863.02" y1="1945.85" x2="3251.33" y2="1518.48" gradientUnits="userSpaceOnUse">
<stop stop-color="#FC5050"/>
<stop offset="0.56" stop-color="#7E4CA8"/>
<stop offset="1" stop-color="#0048FF"/>
</linearGradient>
<linearGradient id="paint12_linear_689_1450" x1="4863.02" y1="1945.85" x2="3251.33" y2="1518.48" gradientUnits="userSpaceOnUse">
<stop stop-color="#FC5050"/>
<stop offset="0.56" stop-color="#7E4CA8"/>
<stop offset="1" stop-color="#0048FF"/>
</linearGradient>
<linearGradient id="paint13_linear_689_1450" x1="-1.99852" y1="3117.36" x2="1399.65" y2="3379.02" gradientUnits="userSpaceOnUse">
<stop stop-color="#E9B49F"/>
<stop offset="0.091" stop-color="#E9B49F"/>
<stop offset="0.435" stop-color="#BC457F"/>
<stop offset="1" stop-color="#6F3FBF"/>
</linearGradient>
<linearGradient id="paint14_linear_689_1450" x1="-1.99852" y1="3117.36" x2="1399.65" y2="3379.02" gradientUnits="userSpaceOnUse">
<stop stop-color="#E9B49F"/>
<stop offset="0.091" stop-color="#E9B49F"/>
<stop offset="0.435" stop-color="#BC457F"/>
<stop offset="1" stop-color="#6F3FBF"/>
</linearGradient>
<linearGradient id="paint15_linear_689_1450" x1="-1.99852" y1="3117.36" x2="1399.65" y2="3379.02" gradientUnits="userSpaceOnUse">
<stop stop-color="#E9B49F"/>
<stop offset="0.091" stop-color="#E9B49F"/>
<stop offset="0.435" stop-color="#BC457F"/>
<stop offset="1" stop-color="#6F3FBF"/>
</linearGradient>
<linearGradient id="paint16_linear_689_1450" x1="-1.99852" y1="3117.36" x2="1399.65" y2="3379.02" gradientUnits="userSpaceOnUse">
<stop stop-color="#E9B49F"/>
<stop offset="0.091" stop-color="#E9B49F"/>
<stop offset="0.435" stop-color="#BC457F"/>
<stop offset="1" stop-color="#6F3FBF"/>
</linearGradient>
<linearGradient id="paint17_linear_689_1450" x1="-1.99852" y1="3117.36" x2="1399.65" y2="3379.02" gradientUnits="userSpaceOnUse">
<stop stop-color="#E9B49F"/>
<stop offset="0.091" stop-color="#E9B49F"/>
<stop offset="0.435" stop-color="#BC457F"/>
<stop offset="1" stop-color="#6F3FBF"/>
</linearGradient>
<linearGradient id="paint18_linear_689_1450" x1="-1.99852" y1="3117.36" x2="1399.65" y2="3379.02" gradientUnits="userSpaceOnUse">
<stop stop-color="#E9B49F"/>
<stop offset="0.091" stop-color="#E9B49F"/>
<stop offset="0.435" stop-color="#BC457F"/>
<stop offset="1" stop-color="#6F3FBF"/>
</linearGradient>
<linearGradient id="paint19_linear_689_1450" x1="-1.99852" y1="3117.36" x2="1399.65" y2="3379.02" gradientUnits="userSpaceOnUse">
<stop stop-color="#E9B49F"/>
<stop offset="0.091" stop-color="#E9B49F"/>
<stop offset="0.435" stop-color="#BC457F"/>
<stop offset="1" stop-color="#6F3FBF"/>
</linearGradient>
<linearGradient id="paint20_linear_689_1450" x1="-1.99852" y1="3117.36" x2="1399.65" y2="3379.02" gradientUnits="userSpaceOnUse">
<stop stop-color="#E9B49F"/>
<stop offset="0.091" stop-color="#E9B49F"/>
<stop offset="0.435" stop-color="#BC457F"/>
<stop offset="1" stop-color="#6F3FBF"/>
</linearGradient>
<linearGradient id="paint21_linear_689_1450" x1="-1.99852" y1="3117.36" x2="1399.65" y2="3379.02" gradientUnits="userSpaceOnUse">
<stop stop-color="#E9B49F"/>
<stop offset="0.091" stop-color="#E9B49F"/>
<stop offset="0.435" stop-color="#BC457F"/>
<stop offset="1" stop-color="#6F3FBF"/>
</linearGradient>
<linearGradient id="paint22_linear_689_1450" x1="-1.99852" y1="3117.36" x2="1399.65" y2="3379.02" gradientUnits="userSpaceOnUse">
<stop stop-color="#E9B49F"/>
<stop offset="0.091" stop-color="#E9B49F"/>
<stop offset="0.435" stop-color="#BC457F"/>
<stop offset="1" stop-color="#6F3FBF"/>
</linearGradient>
<linearGradient id="paint23_linear_689_1450" x1="-1.99852" y1="3117.36" x2="1399.65" y2="3379.02" gradientUnits="userSpaceOnUse">
<stop stop-color="#E9B49F"/>
<stop offset="0.091" stop-color="#E9B49F"/>
<stop offset="0.435" stop-color="#BC457F"/>
<stop offset="1" stop-color="#6F3FBF"/>
</linearGradient>
<linearGradient id="paint24_linear_689_1450" x1="-1.99852" y1="3117.36" x2="1399.65" y2="3379.02" gradientUnits="userSpaceOnUse">
<stop stop-color="#E9B49F"/>
<stop offset="0.091" stop-color="#E9B49F"/>
<stop offset="0.435" stop-color="#BC457F"/>
<stop offset="1" stop-color="#6F3FBF"/>
</linearGradient>
<linearGradient id="paint25_linear_689_1450" x1="-1.99852" y1="3117.36" x2="1399.65" y2="3379.02" gradientUnits="userSpaceOnUse">
<stop stop-color="#E9B49F"/>
<stop offset="0.091" stop-color="#E9B49F"/>
<stop offset="0.435" stop-color="#BC457F"/>
<stop offset="1" stop-color="#6F3FBF"/>
</linearGradient>
<linearGradient id="paint26_linear_689_1450" x1="4092.2" y1="909.697" x2="3525.08" y2="2553.48" gradientUnits="userSpaceOnUse">
<stop stop-color="#FF0095"/>
<stop offset="1" stop-color="#FFCDFF"/>
</linearGradient>
<clipPath id="clip0_689_1450">
<rect width="4145.45" height="1995" fill="white"/>
</clipPath>
</defs>
</svg>
