<svg width="31" height="30" viewBox="0 0 31 30" fill="none" xmlns="http://www.w3.org/2000/svg">
<path d="M15.795 27.9238C12.7913 26.0646 10.0012 23.8806 7.47502 21.4113C5.69104 19.6229 4.33693 17.4524 3.51502 15.0638C2.02877 10.4188 3.76502 5.10001 8.62502 3.52501C9.88502 3.11714 11.2249 3.01962 12.5307 3.24073C13.8365 3.46185 15.0695 3.99505 16.125 4.79501C17.181 3.99601 18.414 3.46339 19.7196 3.24231C21.0252 3.02122 22.3649 3.1182 23.625 3.52501C28.4838 5.09876 30.2325 10.4175 28.75 15.0638C27.9281 17.4524 26.574 19.6229 24.79 21.4113C22.2639 23.8806 19.4738 26.0646 16.47 27.9238L16.145 28.1263L15.795 27.9238Z" fill="white"/>
</svg>
