<svg width="24" height="25" viewBox="0 0 24 25" fill="none" xmlns="http://www.w3.org/2000/svg">
<path d="M16 2.5H8C4 2.5 2 4.5 2 8.5V21.5C2 22.05 2.45 22.5 3 22.5H16C20 22.5 22 20.5 22 16.5V8.5C22 4.5 20 2.5 16 2.5ZM11.11 17.16C10.86 17.41 10.4 17.64 10.06 17.69L7.98 17.98C7.9 17.99 7.82 18 7.75 18C7.4 18 7.08 17.88 6.85 17.65C6.57 17.37 6.45 16.96 6.52 16.52L6.81 14.44C6.86 14.1 7.09 13.63 7.34 13.39L11.11 9.62C11.17 9.8 11.25 9.98 11.34 10.18C11.43 10.36 11.52 10.54 11.62 10.71C11.7 10.85 11.79 10.99 11.87 11.09C11.97 11.24 12.07 11.37 12.14 11.44C12.18 11.5 12.22 11.54 12.23 11.56C12.45 11.81 12.68 12.05 12.9 12.23C12.96 12.29 13 12.32 13.01 12.33C13.14 12.43 13.26 12.54 13.38 12.61C13.51 12.71 13.65 12.8 13.79 12.88C13.96 12.98 14.14 13.08 14.33 13.17C14.52 13.26 14.7 13.33 14.88 13.39L11.11 17.16ZM16.55 11.73L15.77 12.51C15.72 12.56 15.65 12.59 15.58 12.59C15.56 12.59 15.52 12.59 15.5 12.58C13.78 12.09 12.41 10.72 11.92 9C11.89 8.91 11.92 8.81 11.99 8.74L12.78 7.95C14.07 6.66 15.29 6.69 16.55 7.95C17.19 8.59 17.51 9.21 17.5 9.85C17.5 10.48 17.19 11.09 16.55 11.73Z" fill="#0F003A"/>
</svg>
