<svg width="58" height="58" viewBox="0 0 58 58" fill="none" xmlns="http://www.w3.org/2000/svg">
<rect width="58" height="58" rx="29" fill="white"/>
<path d="M24.9064 37.8636C24.9064 39.7464 23.0749 41.2727 20.8155 41.2727C18.5562 41.2727 16.7246 39.7464 16.7246 37.8636C16.7246 35.9809 18.5562 34.4545 20.8155 34.4545C23.0749 34.4545 24.9064 35.9809 24.9064 37.8636ZM24.9064 37.8636V20.8182L38.5428 16.7273V33.7727M38.5428 33.7727C38.5428 35.6555 36.7112 37.1818 34.4519 37.1818C32.1925 37.1818 30.361 35.6555 30.361 33.7727C30.361 31.8899 32.1925 30.3636 34.4519 30.3636C36.7112 30.3636 38.5428 31.8899 38.5428 33.7727Z" stroke="#8333E7" stroke-width="4"/>
</svg>
