<svg width="31" height="38" viewBox="0 0 31 38" fill="none" xmlns="http://www.w3.org/2000/svg">
    <path d="M13.209 31.8334C14.3701 31.8334 15.3479 31.4361 16.1423 30.6417C16.9368 29.8472 17.334 28.8695 17.334 27.7084V20.8334H22.834V17.1667H15.5007V24.2709C15.1645 24.0264 14.8058 23.8504 14.4245 23.7429C14.0432 23.6353 13.638 23.5821 13.209 23.5834C12.0479 23.5834 11.0701 23.9806 10.2757 24.775C9.48121 25.5695 9.08398 26.5472 9.08398 27.7084C9.08398 28.8695 9.48121 29.8472 10.2757 30.6417C11.0701 31.4361 12.0479 31.8334 13.209 31.8334ZM4.50065 37.3334C3.49232 37.3334 2.62943 36.9746 1.91198 36.2572C1.19454 35.5397 0.835207 34.6762 0.833984 33.6667V4.33335C0.833984 3.32502 1.19332 2.46213 1.91198 1.74469C2.63065 1.02724 3.49354 0.667909 4.50065 0.666687H19.1673L30.1673 11.6667V33.6667C30.1673 34.675 29.8086 35.5385 29.0912 36.2572C28.3737 36.9759 27.5102 37.3346 26.5007 37.3334H4.50065ZM17.334 13.5H26.5007L17.334 4.33335V13.5Z" fill="white"/>
</svg>
