<svg width="24" height="25" viewBox="0 0 24 25" fill="none" xmlns="http://www.w3.org/2000/svg">
<path d="M12 2.5C6.48 2.5 2 6.98 2 12.5C2 18.02 6.48 22.5 12 22.5C17.52 22.5 22 18.02 22 12.5C22 6.98 17.52 2.5 12 2.5ZM17.19 16.44C17.15 16.53 17.1 16.61 17.03 16.68L15.34 18.37C15.19 18.52 15 18.59 14.81 18.59C14.62 18.59 14.43 18.52 14.28 18.37C13.99 18.08 13.99 17.6 14.28 17.31L14.69 16.9H9.1C7.8 16.9 6.75 15.84 6.75 14.55V12.78C6.75 12.37 7.09 12.03 7.5 12.03C7.91 12.03 8.25 12.37 8.25 12.78V14.55C8.25 15.02 8.63 15.4 9.1 15.4H14.69L14.28 14.99C13.99 14.7 13.99 14.22 14.28 13.93C14.57 13.64 15.05 13.64 15.34 13.93L17.03 15.62C17.1 15.69 17.15 15.77 17.19 15.86C17.27 16.05 17.27 16.26 17.19 16.44ZM17.25 12.22C17.25 12.63 16.91 12.97 16.5 12.97C16.09 12.97 15.75 12.63 15.75 12.22V10.45C15.75 9.98 15.37 9.6 14.9 9.6H9.31L9.72 10C10.01 10.29 10.01 10.77 9.72 11.06C9.57 11.21 9.38 11.28 9.19 11.28C9 11.28 8.81 11.21 8.66 11.06L6.97 9.37C6.9 9.3 6.85 9.22 6.81 9.13C6.73 8.95 6.73 8.74 6.81 8.56C6.85 8.47 6.9 8.38 6.97 8.31L8.66 6.62C8.95 6.33 9.43 6.33 9.72 6.62C10.01 6.91 10.01 7.39 9.72 7.68L9.31 8.09H14.9C16.2 8.09 17.25 9.15 17.25 10.44V12.22Z" fill="#0F003A"/>
</svg>
