<svg width="19" height="18" viewBox="0 0 19 18" fill="none" xmlns="http://www.w3.org/2000/svg">
<path d="M8.38232 2.35193L9.16279 1.57146C9.49326 1.24099 10.0276 1.24099 10.3546 1.57146L17.189 8.40232C17.5194 8.73279 17.5194 9.26716 17.189 9.59412L10.3546 16.4285C10.0241 16.759 9.48975 16.759 9.16279 16.4285L8.38232 15.648C8.04834 15.314 8.05537 14.7691 8.39639 14.4422L12.6327 10.4062H2.52881C2.06123 10.4062 1.68506 10.0301 1.68506 9.56248V8.43748C1.68506 7.9699 2.06123 7.59373 2.52881 7.59373H12.6327L8.39639 3.55779C8.05186 3.23083 8.04482 2.68591 8.38232 2.35193Z" fill="#7E22CE"/>
</svg>
