<svg width="31" height="30" viewBox="0 0 31 30" fill="none" xmlns="http://www.w3.org/2000/svg">
<path fill-rule="evenodd" clip-rule="evenodd" d="M17.7538 6.66626C17.7538 4.36626 19.6287 2.50001 21.9387 2.50001C22.4872 2.4987 23.0305 2.60542 23.5377 2.81408C24.0449 3.02274 24.506 3.32926 24.8947 3.71613C25.2835 4.10301 25.5922 4.56266 25.8033 5.06884C26.0144 5.57502 26.1237 6.11783 26.125 6.66626C26.125 8.96751 24.25 10.8338 21.9387 10.8338C21.3845 10.8344 20.8356 10.725 20.324 10.5117C19.8124 10.2983 19.3484 9.98549 18.9587 9.59126L13.165 13.5363C13.3264 14.34 13.2472 15.1735 12.9375 15.9325L19.29 20.1075C20.0382 19.4973 20.9745 19.1647 21.94 19.1663C22.4884 19.1651 23.0317 19.272 23.5388 19.4808C24.046 19.6896 24.507 19.9963 24.8956 20.3833C25.2842 20.7703 25.5928 21.23 25.8038 21.7362C26.0147 22.2425 26.1239 22.7853 26.125 23.3338C26.125 25.6338 24.25 27.5 21.9387 27.5C20.8314 27.5023 19.7684 27.0647 18.9836 26.2834C18.1988 25.5022 17.7564 24.4412 17.7538 23.3338C17.7528 22.7496 17.8759 22.1718 18.115 21.6388L11.8125 17.5C11.0493 18.1636 10.0714 18.5282 9.06 18.5263C8.51152 18.5276 7.96816 18.4208 7.46096 18.2121C6.95376 18.0033 6.49266 17.6966 6.10401 17.3096C5.71537 16.9226 5.40679 16.4628 5.19591 15.9565C4.98503 15.4502 4.87598 14.9072 4.875 14.3588C4.87615 13.8104 4.98532 13.2676 5.19627 12.7614C5.40722 12.2553 5.71583 11.7956 6.10446 11.4087C6.49309 11.0218 6.95413 10.7153 7.46125 10.5066C7.96836 10.2979 8.51163 10.1912 9.06 10.1925C10.39 10.1925 11.5725 10.8088 12.3387 11.7688L17.955 7.94501C17.8214 7.53193 17.7535 7.10042 17.7538 6.66626Z" fill="white"/>
</svg>
