<svg width="25" height="25" viewBox="0 0 25 25" fill="none" xmlns="http://www.w3.org/2000/svg">
<g opacity="0.66">
<path fill-rule="evenodd" clip-rule="evenodd" d="M12.1018 3.29614C11.7278 3.14214 11.2978 3.22714 11.0118 3.51314L6.71875 8.21914H3.71875C3.16875 8.21914 2.71875 8.67014 2.71875 9.21914V15.2191C2.71875 15.7691 3.16875 16.2191 3.71875 16.2191H6.71875L11.0118 20.9271C11.2978 21.2131 11.7278 21.2991 12.1018 21.1441C12.4757 20.9891 12.7188 20.6241 12.7188 20.2191V4.21914C12.7188 3.81614 12.4757 3.44914 12.1018 3.29614ZM14.7188 5.21905V7.21905C17.4757 7.21905 19.7188 9.46305 19.7188 12.2191C19.7188 14.9761 17.4757 17.2191 14.7188 17.2191V19.2191C18.5787 19.2191 21.7188 16.0801 21.7188 12.2191C21.7188 8.36005 18.5787 5.21905 14.7188 5.21905ZM14.7188 9.21905C16.3728 9.21905 17.7188 10.5661 17.7188 12.2191C17.7188 13.8741 16.3728 15.2191 14.7188 15.2191V13.2191C15.2697 13.2191 15.7188 12.7701 15.7188 12.2191C15.7188 11.6681 15.2697 11.2191 14.7188 11.2191V9.21905Z" fill="#FF0000" style="mix-blend-mode:saturation"/>
<path fill-rule="evenodd" clip-rule="evenodd" d="M12.1018 3.29614C11.7278 3.14214 11.2978 3.22714 11.0118 3.51314L6.71875 8.21914H3.71875C3.16875 8.21914 2.71875 8.67014 2.71875 9.21914V15.2191C2.71875 15.7691 3.16875 16.2191 3.71875 16.2191H6.71875L11.0118 20.9271C11.2978 21.2131 11.7278 21.2991 12.1018 21.1441C12.4757 20.9891 12.7188 20.6241 12.7188 20.2191V4.21914C12.7188 3.81614 12.4757 3.44914 12.1018 3.29614ZM14.7188 5.21905V7.21905C17.4757 7.21905 19.7188 9.46305 19.7188 12.2191C19.7188 14.9761 17.4757 17.2191 14.7188 17.2191V19.2191C18.5787 19.2191 21.7188 16.0801 21.7188 12.2191C21.7188 8.36005 18.5787 5.21905 14.7188 5.21905ZM14.7188 9.21905C16.3728 9.21905 17.7188 10.5661 17.7188 12.2191C17.7188 13.8741 16.3728 15.2191 14.7188 15.2191V13.2191C15.2697 13.2191 15.7188 12.7701 15.7188 12.2191C15.7188 11.6681 15.2697 11.2191 14.7188 11.2191V9.21905Z" fill="white" style="mix-blend-mode:difference"/>
<path fill-rule="evenodd" clip-rule="evenodd" d="M12.1018 3.29614C11.7278 3.14214 11.2978 3.22714 11.0118 3.51314L6.71875 8.21914H3.71875C3.16875 8.21914 2.71875 8.67014 2.71875 9.21914V15.2191C2.71875 15.7691 3.16875 16.2191 3.71875 16.2191H6.71875L11.0118 20.9271C11.2978 21.2131 11.7278 21.2991 12.1018 21.1441C12.4757 20.9891 12.7188 20.6241 12.7188 20.2191V4.21914C12.7188 3.81614 12.4757 3.44914 12.1018 3.29614ZM14.7188 5.21905V7.21905C17.4757 7.21905 19.7188 9.46305 19.7188 12.2191C19.7188 14.9761 17.4757 17.2191 14.7188 17.2191V19.2191C18.5787 19.2191 21.7188 16.0801 21.7188 12.2191C21.7188 8.36005 18.5787 5.21905 14.7188 5.21905ZM14.7188 9.21905C16.3728 9.21905 17.7188 10.5661 17.7188 12.2191C17.7188 13.8741 16.3728 15.2191 14.7188 15.2191V13.2191C15.2697 13.2191 15.7188 12.7701 15.7188 12.2191C15.7188 11.6681 15.2697 11.2191 14.7188 11.2191V9.21905Z" fill="white" style="mix-blend-mode:saturation"/>
<path fill-rule="evenodd" clip-rule="evenodd" d="M12.1018 3.29614C11.7278 3.14214 11.2978 3.22714 11.0118 3.51314L6.71875 8.21914H3.71875C3.16875 8.21914 2.71875 8.67014 2.71875 9.21914V15.2191C2.71875 15.7691 3.16875 16.2191 3.71875 16.2191H6.71875L11.0118 20.9271C11.2978 21.2131 11.7278 21.2991 12.1018 21.1441C12.4757 20.9891 12.7188 20.6241 12.7188 20.2191V4.21914C12.7188 3.81614 12.4757 3.44914 12.1018 3.29614ZM14.7188 5.21905V7.21905C17.4757 7.21905 19.7188 9.46305 19.7188 12.2191C19.7188 14.9761 17.4757 17.2191 14.7188 17.2191V19.2191C18.5787 19.2191 21.7188 16.0801 21.7188 12.2191C21.7188 8.36005 18.5787 5.21905 14.7188 5.21905ZM14.7188 9.21905C16.3728 9.21905 17.7188 10.5661 17.7188 12.2191C17.7188 13.8741 16.3728 15.2191 14.7188 15.2191V13.2191C15.2697 13.2191 15.7188 12.7701 15.7188 12.2191C15.7188 11.6681 15.2697 11.2191 14.7188 11.2191V9.21905Z" fill="white" style="mix-blend-mode:overlay"/>
<path fill-rule="evenodd" clip-rule="evenodd" d="M12.1018 3.29614C11.7278 3.14214 11.2978 3.22714 11.0118 3.51314L6.71875 8.21914H3.71875C3.16875 8.21914 2.71875 8.67014 2.71875 9.21914V15.2191C2.71875 15.7691 3.16875 16.2191 3.71875 16.2191H6.71875L11.0118 20.9271C11.2978 21.2131 11.7278 21.2991 12.1018 21.1441C12.4757 20.9891 12.7188 20.6241 12.7188 20.2191V4.21914C12.7188 3.81614 12.4757 3.44914 12.1018 3.29614ZM14.7188 5.21905V7.21905C17.4757 7.21905 19.7188 9.46305 19.7188 12.2191C19.7188 14.9761 17.4757 17.2191 14.7188 17.2191V19.2191C18.5787 19.2191 21.7188 16.0801 21.7188 12.2191C21.7188 8.36005 18.5787 5.21905 14.7188 5.21905ZM14.7188 9.21905C16.3728 9.21905 17.7188 10.5661 17.7188 12.2191C17.7188 13.8741 16.3728 15.2191 14.7188 15.2191V13.2191C15.2697 13.2191 15.7188 12.7701 15.7188 12.2191C15.7188 11.6681 15.2697 11.2191 14.7188 11.2191V9.21905Z" fill="white" style="mix-blend-mode:overlay"/>
<path fill-rule="evenodd" clip-rule="evenodd" d="M12.1018 3.29614C11.7278 3.14214 11.2978 3.22714 11.0118 3.51314L6.71875 8.21914H3.71875C3.16875 8.21914 2.71875 8.67014 2.71875 9.21914V15.2191C2.71875 15.7691 3.16875 16.2191 3.71875 16.2191H6.71875L11.0118 20.9271C11.2978 21.2131 11.7278 21.2991 12.1018 21.1441C12.4757 20.9891 12.7188 20.6241 12.7188 20.2191V4.21914C12.7188 3.81614 12.4757 3.44914 12.1018 3.29614ZM14.7188 5.21905V7.21905C17.4757 7.21905 19.7188 9.46305 19.7188 12.2191C19.7188 14.9761 17.4757 17.2191 14.7188 17.2191V19.2191C18.5787 19.2191 21.7188 16.0801 21.7188 12.2191C21.7188 8.36005 18.5787 5.21905 14.7188 5.21905ZM14.7188 9.21905C16.3728 9.21905 17.7188 10.5661 17.7188 12.2191C17.7188 13.8741 16.3728 15.2191 14.7188 15.2191V13.2191C15.2697 13.2191 15.7188 12.7701 15.7188 12.2191C15.7188 11.6681 15.2697 11.2191 14.7188 11.2191V9.21905Z" fill="white" style="mix-blend-mode:overlay"/>
<path fill-rule="evenodd" clip-rule="evenodd" d="M12.1018 3.29614C11.7278 3.14214 11.2978 3.22714 11.0118 3.51314L6.71875 8.21914H3.71875C3.16875 8.21914 2.71875 8.67014 2.71875 9.21914V15.2191C2.71875 15.7691 3.16875 16.2191 3.71875 16.2191H6.71875L11.0118 20.9271C11.2978 21.2131 11.7278 21.2991 12.1018 21.1441C12.4757 20.9891 12.7188 20.6241 12.7188 20.2191V4.21914C12.7188 3.81614 12.4757 3.44914 12.1018 3.29614ZM14.7188 5.21905V7.21905C17.4757 7.21905 19.7188 9.46305 19.7188 12.2191C19.7188 14.9761 17.4757 17.2191 14.7188 17.2191V19.2191C18.5787 19.2191 21.7188 16.0801 21.7188 12.2191C21.7188 8.36005 18.5787 5.21905 14.7188 5.21905ZM14.7188 9.21905C16.3728 9.21905 17.7188 10.5661 17.7188 12.2191C17.7188 13.8741 16.3728 15.2191 14.7188 15.2191V13.2191C15.2697 13.2191 15.7188 12.7701 15.7188 12.2191C15.7188 11.6681 15.2697 11.2191 14.7188 11.2191V9.21905Z" fill="white" style="mix-blend-mode:overlay"/>
</g>
</svg>
