<svg width="24" height="25" viewBox="0 0 24 25" fill="none" xmlns="http://www.w3.org/2000/svg">
<path d="M16.19 2.5H7.81C4.17 2.5 2 4.67 2 8.31V16.68C2 20.33 4.17 22.5 7.81 22.5H16.18C19.82 22.5 21.99 20.33 21.99 16.69V8.31C22 4.67 19.83 2.5 16.19 2.5ZM6.75 14.64C6.75 15.05 6.41 15.39 6 15.39C5.59 15.39 5.25 15.05 5.25 14.64V10.36C5.25 9.95 5.59 9.61 6 9.61C6.41 9.61 6.75 9.95 6.75 10.36V14.64ZM9.75 16.07C9.75 16.48 9.41 16.82 9 16.82C8.59 16.82 8.25 16.48 8.25 16.07V8.93C8.25 8.52 8.59 8.18 9 8.18C9.41 8.18 9.75 8.52 9.75 8.93V16.07ZM12.75 17.5C12.75 17.91 12.41 18.25 12 18.25C11.59 18.25 11.25 17.91 11.25 17.5V7.5C11.25 7.09 11.59 6.75 12 6.75C12.41 6.75 12.75 7.09 12.75 7.5V17.5ZM15.75 16.07C15.75 16.48 15.41 16.82 15 16.82C14.59 16.82 14.25 16.48 14.25 16.07V8.93C14.25 8.52 14.59 8.18 15 8.18C15.41 8.18 15.75 8.52 15.75 8.93V16.07ZM18.75 14.64C18.75 15.05 18.41 15.39 18 15.39C17.59 15.39 17.25 15.05 17.25 14.64V10.36C17.25 9.95 17.59 9.61 18 9.61C18.41 9.61 18.75 9.95 18.75 10.36V14.64Z" fill="#0F003A"/>
</svg>
