<svg width="24" height="25" viewBox="0 0 24 25" fill="none" xmlns="http://www.w3.org/2000/svg">
<path d="M22.0002 13.12V15.18C22.0002 15.74 21.5402 16.2 20.9702 16.2H19.0402C17.9602 16.2 16.9702 15.41 16.8802 14.33C16.8202 13.7 17.0602 13.11 17.4802 12.7C17.8502 12.32 18.3602 12.1 18.9202 12.1H20.9702C21.5402 12.1 22.0002 12.56 22.0002 13.12Z" fill="white"/>
<path d="M15.38 14.46C15.29 13.41 15.67 12.38 16.43 11.63C17.07 10.98 17.96 10.6 18.92 10.6H19.49C19.77 10.6 20 10.37 19.96 10.09C19.69 8.14999 18.01 6.64999 16 6.64999H6C3.79 6.64999 2 8.43999 2 10.65V17.65C2 19.86 3.79 21.65 6 21.65H16C18.02 21.65 19.69 20.15 19.96 18.21C20 17.93 19.77 17.7 19.49 17.7H19.04C17.14 17.7 15.54 16.28 15.38 14.46ZM13 12.4H7C6.59 12.4 6.25 12.07 6.25 11.65C6.25 11.23 6.59 10.9 7 10.9H13C13.41 10.9 13.75 11.24 13.75 11.65C13.75 12.06 13.41 12.4 13 12.4Z" fill="white"/>
<path d="M14.2106 4.48001C14.4706 4.75001 14.2406 5.15001 13.8606 5.15001H6.03064C4.94064 5.15001 3.92064 5.47001 3.07064 6.02001C2.68064 6.27001 2.15064 6.00001 2.34064 5.57001C2.90064 4.26001 4.21064 3.35001 5.72064 3.35001H11.3406C12.5006 3.35001 13.5306 3.76001 14.2106 4.48001Z" fill="white"/>
</svg>
