<svg width="21" height="20" viewBox="0 0 21 20" fill="none" xmlns="http://www.w3.org/2000/svg">
<path d="M19.0568 11.0998C18.875 10.7362 18.6478 10.3727 18.466 9.96362C18.9659 9.1001 19.375 8.23659 19.7386 7.32762C20.693 4.64617 20.5112 2.46466 19.1932 1.14666C17.8752 -0.17134 15.6482 -0.353133 12.9668 0.60128C12.0578 0.919418 11.1488 1.3739 10.3308 1.87383C6.74036 -0.262237 3.33174 -0.671271 1.51381 1.19211C-0.304116 3.05549 0.0594715 6.37321 2.19554 9.96362C2.01375 10.2818 1.83195 10.5544 1.69561 10.8726C0.0140221 14.1449 -0.167772 17.099 1.51381 18.7806C2.37733 19.5987 3.51354 20.0077 4.64974 19.9622C6.28588 19.9168 7.87657 19.4623 9.33091 18.6442C10.1035 18.2352 10.8307 17.8262 11.5124 17.3262C12.7395 16.4627 13.8303 15.5538 14.8756 14.5084C15.421 13.9631 15.9664 13.3722 16.4663 12.7814C16.6935 12.5542 16.8753 12.2815 17.0571 12.0088C17.2389 12.3724 17.4207 12.7814 17.557 13.1904C17.557 13.2359 17.6025 13.2813 17.6025 13.3722C17.8752 14.0994 18.057 14.872 18.057 15.6447C18.1024 16.19 17.9206 16.7809 17.557 17.1899C16.8753 17.8716 15.4664 17.8716 13.6939 17.2353C13.6485 17.2353 13.5576 17.1899 13.5122 17.1899C13.1031 17.508 12.6941 17.8262 12.3305 18.0989C12.0124 18.3261 11.7397 18.5079 11.4215 18.6897C11.9215 18.9624 12.4214 19.1442 12.9668 19.3714C13.9212 19.735 14.9665 19.9622 16.0118 19.9622C16.6026 19.9622 17.1935 19.8713 17.7843 19.6895C18.2842 19.5078 18.7841 19.1896 19.1477 18.826C20.4657 17.508 20.693 15.2811 19.6931 12.6451C19.5113 12.0997 19.3295 11.5998 19.0568 11.0998ZM13.7394 2.6919C15.4664 2.05562 16.9208 2.05562 17.6025 2.73735C18.2842 3.41907 18.2842 4.82797 17.6479 6.60045C17.4662 7.05493 17.2844 7.50942 17.0571 7.91845C16.3754 7.05493 15.6482 6.23686 14.8756 5.4188C14.3757 4.91886 13.8303 4.41893 13.2849 3.96445C12.9668 3.69176 12.6941 3.46452 12.3759 3.23728C12.8304 3.05549 13.2849 2.82824 13.7394 2.6919ZM3.05905 17.2353C2.33188 16.5082 2.37733 14.9629 3.14995 13.0541C3.2863 12.736 3.42264 12.4178 3.60443 12.0542C3.83168 12.3724 4.10436 12.6905 4.37705 12.9632C4.83154 13.4631 5.28602 14.0085 5.78595 14.5084C6.55857 15.2811 7.37664 16.0082 8.24015 16.69C7.87657 16.8718 7.55843 17.0081 7.19485 17.1444C5.33147 17.9171 3.78623 17.9625 3.05905 17.2353ZM13.2849 12.9632C12.3759 13.8722 11.3761 14.7357 10.2853 15.4629C8.4674 14.1903 6.87671 12.6905 5.51326 10.918C5.24057 10.5999 5.01333 10.2818 4.83154 9.96362C5.55871 8.91831 6.42222 7.91845 7.33119 6.96404C8.01291 6.28231 8.69464 5.69148 9.46726 5.10066C8.78554 4.64617 8.10381 4.23714 7.37664 3.919C6.83126 4.37349 6.28588 4.87342 5.78595 5.37335C5.01333 6.14597 4.28616 6.96404 3.60443 7.82755C2.42278 5.46424 2.24098 3.50997 3.05905 2.64645C3.46809 2.28287 4.05892 2.10107 4.60429 2.14652C6.69491 2.14652 10.149 3.78266 13.2849 6.91859C14.1939 7.82755 15.0574 8.82741 15.7846 9.87272C15.6028 10.1454 15.421 10.4181 15.1937 10.6908C14.6029 11.5543 13.9666 12.2815 13.2849 12.9632Z" fill="white"/>
<path d="M10.8497 12.0698C11.9894 11.8848 12.7634 10.8109 12.5784 9.67121C12.3935 8.53149 11.3196 7.7575 10.1799 7.94247C9.04014 8.12744 8.26616 9.20132 8.45113 10.341C8.6361 11.4808 9.70997 12.2547 10.8497 12.0698Z" fill="white"/>
</svg>
