<svg width="30" height="30" viewBox="0 0 30 30" fill="none" xmlns="http://www.w3.org/2000/svg">
<path d="M28.6278 8.12932C28.3007 6.89755 27.3368 5.92745 26.113 5.59823C23.8948 5 14.9999 5 14.9999 5C14.9999 5 6.10516 5 3.88688 5.59823C2.66307 5.9275 1.69922 6.89755 1.37208 8.12932C0.77771 10.362 0.77771 15.0202 0.77771 15.0202C0.77771 15.0202 0.77771 19.6784 1.37208 21.9111C1.69922 23.1429 2.66307 24.0726 3.88688 24.4018C6.10516 25 14.9999 25 14.9999 25C14.9999 25 23.8947 25 26.113 24.4018C27.3368 24.0726 28.3007 23.1429 28.6278 21.9111C29.2222 19.6784 29.2222 15.0202 29.2222 15.0202C29.2222 15.0202 29.2222 10.362 28.6278 8.12932Z" fill="white"/>
<path d="M28.6278 8.12932C28.3007 6.89755 27.3368 5.92745 26.113 5.59823C23.8948 5 14.9999 5 14.9999 5C14.9999 5 6.10516 5 3.88688 5.59823C2.66307 5.9275 1.69922 6.89755 1.37208 8.12932C0.77771 10.362 0.77771 15.0202 0.77771 15.0202C0.77771 15.0202 0.77771 19.6784 1.37208 21.9111C1.69922 23.1429 2.66307 24.0726 3.88688 24.4018C6.10516 25 14.9999 25 14.9999 25C14.9999 25 23.8947 25 26.113 24.4018C27.3368 24.0726 28.3007 23.1429 28.6278 21.9111C29.2222 19.6784 29.2222 15.0202 29.2222 15.0202C29.2222 15.0202 29.2222 10.362 28.6278 8.12932ZM12.0908 19.2495V10.7909L19.5252 15.0203L12.0908 19.2495Z" fill="#FF0000"/>
</svg>
