<svg width="24" height="24" viewBox="0 0 24 24" fill="none" xmlns="http://www.w3.org/2000/svg">
<path d="M21.7202 6.28001V7.45001C21.7202 8.43001 21.3302 9.27001 20.6402 9.76001C20.2102 10.08 19.6802 10.23 19.1302 10.23C18.7902 10.23 18.4502 10.18 18.1002 10.06L12.7202 8.27001V18C12.7202 20.62 10.5902 22.75 7.97021 22.75C5.35021 22.75 3.22021 20.62 3.22021 18C3.22021 15.38 5.35021 13.25 7.97021 13.25C9.23022 13.25 10.3702 13.75 11.2202 14.55V4.00001C11.2202 3.03001 11.6202 2.19001 12.3102 1.69001C13.0002 1.20001 13.9202 1.09001 14.8402 1.39001L19.2602 2.87001C20.6202 3.32001 21.7202 4.85001 21.7202 6.28001Z" fill="white"/>
</svg>
